<?xml version="1.0" encoding="UTF-8"?>
<svg id="_レイヤー_2" data-name="レイヤー 2" xmlns="http://www.w3.org/2000/svg" viewBox="0 0 779.4747932 71">
  <defs>
    <style>
      .cls-1 {
        fill: #231815;
      }

      .cls-1, .cls-2, .cls-3 {
        stroke-width: 0px;
      }

      .cls-3 {
        fill: gray;
      }
    </style>
  </defs>
  <g id="_ヘッダー" data-name="ヘッダー">
    <g>
      <g>
        <g>
          <path class="cls-2" d="m157.7882697,22.5845779c-4.1181641-3.7436523-6.4262695-7.9238281-6.4262695-12.2915039,0-7.050293,5.9272461-10.1699219,11.043457-10.1699219h.3120117c2.1835938.0625,4.7416992.5615234,6.925293.5615234h.8735352c.3120117,0,.3745117.1245117.3745117.3745117-.0625.6860352-.1245117,1.3100586-.1245117,1.996582,0,1.5595703.1870117,3.1196289.1870117,4.7416992,0,1.7470703-.1870117,1.934082-.4990234,1.934082-.1875,0-.3745117-.1870117-.3745117-.4990234,0-3.0571289-1.934082-7.112793-7.9238281-7.112793-4.3676758,0-6.8632812,2.9326172-6.8632812,6.1767578v.125c0,4.2426758,2.5581055,6.987793,6.4887695,9.9829102l3.4941406,2.8701172c4.7416992,3.9931641,7.7988281,7.9238281,7.7988281,12.9150391,0,6.2397461-4.7416992,12.6035156-13.5390625,12.6035156h-.125c-2.8076172,0-6.3017578-.9980469-8.2983398-2.1210938-.8110352-.4995117-1.3725586-.6240234-1.3725586-1.996582v-.2495117c.125-2.184082.4995117-5.0541992.5615234-7.4248047,0-.3120117.1875-.4370117.3745117-.4370117.2495117,0,.4990234.1870117.4990234.4370117,0,8.4228516,6.0522461,9.4833984,8.8598633,9.4833984,6.4267578,0,8.4853516-5.1787109,8.4853516-7.7988281,0-4.7421875-2.9946289-7.5498047-7.050293-10.9189453l-3.6811523-3.1821289Z"/>
          <path class="cls-2" d="m212.7760627,28.312117c0-14.9213867,0-19.2392578-1.2021484-21.425293-.0546875-.109375-.109375-.21875-.109375-.2734375,0-.21875.1640625-.2734375.3823242-.2734375h.109375c.7651367.1640625,1.8037109.2734375,3.2792969.2734375,1.0932617,0,2.4599609-.0546875,4.0449219-.21875h.109375c.3276367,0,.4916992.1640625.4916992.328125,0,.21875-.21875.4370117-.4916992.4916992-2.6235352.4921875-3.9355469,2.5146484-3.9902344,6.340332,0,3.0063477-.109375,9.0185547-.1640625,14.9760742v2.1865234c0,13.171875-10.7124023,16.1782227-15.7412109,16.1782227-5.6293945,0-11.0952148-2.8422852-13.5546875-8.6904297-1.0932617-2.6782227-1.2573242-4.5913086-1.2573242-11.4233398.0546875-2.7329102.0546875-5.6298828.0546875-8.1987305,0-9.3461914-.2182617-10.7124023-3.7709961-11.4780273-.21875-.0541992-.2734375-.1635742-.2734375-.3276367,0-.21875.1640625-.4375.3828125-.4375,1.3662109.109375,3.8803711.2734375,6.6132812.2734375,1.5302734,0,3.1152344-.0546875,4.5913086-.21875h.1640625c.2729492,0,.4370117.109375.4370117.2734375,0,.2734375-.2734375.5463867-.5463867.6010742-2.1865234.4375-3.1704102,1.3666992-3.2250977,5.1376953-.0546875,1.6401367-.0546875,9.1279297-.109375,14.3203125,0,5.1923828.109375,7.706543,1.0932617,10.2207031,1.8583984,4.9741211,6.0668945,7.3789062,10.3847656,7.3789062,5.2470703,0,10.6582031-3.5527344,11.9702148-10.2207031.2182617-.8198242.3276367-1.5307617.3276367-5.7939453Z"/>
          <path class="cls-2" d="m264.695008,15.3585037c-.109375,0-.21875.1640625-.3828125.4916992-3.1699219,6.7231445-11.6962891,23.3935547-13.828125,30.0068359-.1640625.546875-.3823242.7651367-.6010742.7651367s-.4375-.2182617-.6015625-.7104492c-1.4208984-3.9897461-9.9472656-18.3100586-14.7026367-30.1704102-.109375-.328125-.2729492-.546875-.3823242-.546875-.0546875,0-.1640625.1640625-.21875.4921875-.6010742,5.9575195-2.3500977,18.0366211-3.1152344,23.7758789-.109375.8198242-.21875,1.6396484-.21875,2.4047852,0,1.8037109.5463867,3.2792969,2.8417969,3.6074219.2734375,0,.4375.2182617.4375.3823242,0,.21875-.21875.3828125-.7104492.3828125h-.109375c-2.2407227-.2734375-3.4980469-.4375-4.9736328-.4375-1.0932617,0-2.3505859.109375-4.2631836.328125h-.21875c-.328125,0-.4375-.109375-.4375-.21875,0-.1640625.1640625-.328125.4921875-.3823242,2.9511719-.4921875,3.9897461-2.8422852,4.5361328-5.7939453.9838867-5.0283203,4.3183594-27.984375,4.7006836-33.668457.0546875-.4921875.109375-.8198242.2734375-.8198242.109375,0,.3276367.2182617.6010742.7651367,5.6845703,11.2592773,9.7836914,18.5830078,16.8891602,32.7939453,2.9511719-6.012207,13.71875-27.9296875,15.7412109-32.7392578.21875-.4921875.4370117-.8198242.6010742-.8198242s.2734375.2182617.328125.7651367c.6557617,7.1601562,2.9511719,21.3706055,4.9189453,31.9741211,1.2026367,6.5043945,2.4594727,7.2148438,5.0283203,7.5429688.1640625,0,.328125.1635742.328125.3276367,0,.21875-.21875.4375-.6557617.4375h-.109375c-2.2954102-.21875-3.9355469-.2734375-5.1376953-.2734375-1.5307617,0-2.4047852.109375-3.3339844.2734375h-.109375c-.2734375,0-.3828125-.109375-.3828125-.2734375,0-.109375.0546875-.21875.109375-.3828125.21875-.4916992.2734375-1.2568359.2734375-2.1860352,0-1.5849609-.2734375-3.6074219-.4921875-5.3017578-.6010742-4.3178711-2.4047852-14.375-2.8964844-22.2456055-.0546875-.3276367-.109375-.5463867-.21875-.5463867Z"/>
          <path class="cls-2" d="m295.0778205,46.3492263c-1.5849609-.109375-3.9355469-.4375-6.7773438-.4375-1.7490234,0-3.6074219.109375-5.5751953.4375h-.0546875c-.21875,0-.3823242-.1640625-.3823242-.328125s.1088867-.2734375.3276367-.328125c3.5527344-.4916992,4.3178711-1.7490234,4.3178711-6.8867188.0546875-4.3725586.1640625-11.6416016.1640625-17.8178711,0-11.6420898-.0546875-13.1723633-3.7714844-13.9921875-.2182617-.0546875-.2729492-.1640625-.2729492-.2734375,0-.1640625.1635742-.3828125.3823242-.3828125,1.3666992.109375,3.7714844.2734375,6.3950195.2734375,1.5302734,0,3.0605469-.0546875,4.5366211-.21875h.1640625c.2729492,0,.4370117.109375.4370117.2734375,0,.2734375-.2734375.5463867-.5463867.6010742-2.1865234.4375-3.0063477,1.3666992-3.1157227,5.1376953-.1640625,3.7167969-.2182617,11.3686523-.2182617,17.9277344,0,3.3339844.0541992,6.340332.0541992,8.5263672,0,4.3725586.1640625,6.6137695,3.8808594,6.668457.328125.0541992.5463867.2729492.5463867.4916992,0,.1640625-.1635742.328125-.4370117.328125h-.0546875Z"/>
          <path class="cls-2" d="m303.8746955,46.3492263c-.2182617,0-.3823242-.1640625-.3823242-.3828125,0-.109375.109375-.2734375.3276367-.2734375,3.1704102-.1635742,3.5527344-1.9672852,3.5527344-6.2304688v-1.2026367c-.0546875-2.7875977-.0546875-5.4658203-.0546875-8.034668,0-5.793457.0546875-10.9311523.0546875-14.9213867,0-6.340332-.0546875-7.9799805-3.6069336-8.3076172-.21875-.0546875-.328125-.21875-.328125-.328125,0-.1640625.109375-.328125.2734375-.328125,2.1313477.109375,3.6069336.21875,5.2470703.21875,1.4208984,0,2.9511719-.0546875,5.1923828-.21875h.0546692c.327655,0,.4917175.1640625.4917175.328125,0,.21875-.1640625.3828125-.4370117.4370117-2.4599609.2734375-2.7875977,2.0771484-2.7875977,5.1928711,0,6.1762695-.0546875,18.3100586-.1640625,26.0166016v1.8583984c0,3.7709961.3823242,4.9189453,3.9350586,5.5200195.21875.0546875.328125.21875.328125.328125,0,.1640625-.109375.328125-.3828125.328125-1.9125977,0-3.5527344-.328125-6.2304688-.328125-1.3666992,0-3.0063477.109375-5.0288086.328125h-.0546875Zm32.8491211-39.9545898c.3276367,0,.4916992.1640625.4916992.328125s-.2182617.4370117-.7104492.4916992c-5.1376953.6015625-16.2875977,12.6806641-19.7856445,16.0693359-.21875.21875-.328125.4375-.328125.6557617,0,.1640625.0546875.328125.21875.4921875,16.3422852,16.5063477,21.753418,20.9882812,26.1806641,21.206543.21875,0,.3823242.109375.3823242.2734375,0,.328125-.1635742.3828125-4.8642578.3828125h-.109375c-8.7998047,0-11.6962891-5.4111328-25.6342773-20.9335938-.1635742-.2734375-.4916992-.4375-.4916992-.65625,0-.0546875.0546875-.1635742.21875-.2729492.6010742-.328125,1.0927734-.6015625,1.6396484-1.1479492,3.8803711-3.6621094,13.1176758-12.1884766,13.1176758-15.6865234,0-.21875-.0546875-.4375-.109375-.6010742v-.109375c0-.2734375.109375-.4921875.4370117-.4921875,2.5693359.0546875,3.5527344.1640625,5.0288086.1640625.9838867,0,2.1860352-.0546875,4.2631836-.1640625h.0546875Z"/>
          <path class="cls-2" d="m360.0573127,5.1378006c.1635742,0,.2729298.2182617.4370117.7651367,1.4755859,5.3017578,8.144043,21.425293,12.8989258,32.0834961,2.8422852,6.5043945,3.7714844,7.0507812,6.0668945,7.597168.21875.0546875.4375.21875.4375.3828125s-.21875.2734375-.7104492.2734375c-2.8422852-.1640625-4.5913086-.21875-5.8486328-.21875-1.2021484,0-1.9125977.0546875-2.7871094.21875h-.1640625c-.1640625,0-.21875-.0546875-.21875-.2734375v-.2734375c.109375-.3276367.109375-.7104492.109375-1.0927734,0-1.8583984-.8198242-4.6459961-4.2084961-13.5551758-.0546875-.1640625-.328125-.3276367-.65625-.3276367-1.4755859.0541992-3.3886719.0541992-5.2470703.0541992-2.5688477,0-5.1376953,0-6.5585938-.0541992-.3828125,0-.5463867.1635742-.6010742.3276367-1.8037109,5.1923828-3.2250977,9.5649414-3.3886719,9.9477539-.21875.6557617-.3828125,1.3662109-.3828125,2.0766602,0,1.3120117.5463867,2.4599609,2.4047852,2.5141602.2734375,0,.4375.1640625.4375.2734375,0,.21875-.21875.3828125-.65625.3828125-2.0766602-.109375-3.2792969-.1640625-4.7001953-.1640625-1.3120117,0-2.7875977.0546875-5.2470703.1640625-.4375,0-.6557617-.109375-.6557617-.2734375s.2729492-.328125.7104492-.3828125c2.7329102-.1635742,4.4819336-2.5141602,5.5205078-4.8642578.5463867-1.2568359,11.0405273-29.0229492,12.5161133-34.7617188.1640625-.4921875.328125-.8198242.4921875-.8198242Zm-5.7939453,23.4477539c1.4213867-.0546875,3.2250977-.0546875,5.0288086-.0546875,1.8032227,0,3.6616211,0,5.1923828.0546875h.1635742c.1640625,0,.2734375-.0546875.2734375-.1640625,0-.0546875,0-.1640625-.0546875-.21875-5.2470703-14.2104492-5.4658203-14.5385742-5.574707-14.5385742-.109375,0-.21875.1640625-.2734375.4370117l-4.9736328,14.15625v.109375c0,.109375.0541992.21875.1635742.21875h.0546875Z"/>
        </g>
        <g>
          <path class="cls-1" d="m223.2998047,70.6152344c-.2441406,0-.3896484-.0649414-.3896484-.1738281,0-.1630859.3466797-.2788086.5537109-.3334961,1.3955078-.3662109,3.6445312-1.6499023,4.4941406-3.4086914-.1777344.1157227-.4033203.206543-.6425781.206543-.9643555,0-1.4697266-1.8007812-1.4697266-2.4238281,0-1.1782227.7719727-1.5961914,1.4335938-1.5961914.2504883,0,.5.0527344.7587891.1611328l-.0205078-.6137695c-.0170898-.4663086-.0361328-.9970703-.0478516-1.5869141-1.7490234.234375-3.6220703.7490234-5.3442383,1.5527344-.2685547.1147461-.5112305.1679688-.7661133.1679688-1.1342773,0-2.3339844-1.0615234-2.3339844-1.6323242,0-.1313477.0849609-.2094727.2275391-.2094727.1147461,0,.2397461.0341797.4174805.09375l.3383789.125c.4692383.1762695.8076172.3037109,1.2070312.3037109.1420898,0,.2988281-.0185547.4536133-.0527344l.1206055-.0253906c2.0629883-.4335938,3.8442383-.8081055,5.7197266-1.0375977l-.0576172-1.6459961c0-.6489258-.3310547-.8515625-.6811523-1.0668945-.0644531-.0395508-.1289062-.0791016-.190918-.1210938-.0942383-.0756836-.1542969-.1459961-.1542969-.2524414,0-.1391602.3945312-.4794922.9121094-.4794922.3530273,0,1.3613281.2631836,1.3613281,1.434082,0,.1679688-.0302734.3510742-.0634766.5493164-.09375.5610352-.1630859,1.0405273-.2158203,1.4853516.6259766-.0507812,1.2836914-.0844727,1.9594727-.1015625.1933594,0,.2270508-.0351562.2275391-.0356445-.0253906-.0429688-.4038086-.2856445-1.0908203-.7260742-.3847656-.2573242-.4614258-.3564453-.4614258-.4331055,0-.0361328.0830078-.0834961.1191406-.0834961.1269531,0,.3740234.0795898.515625.1508789.7207031.3515625,1.7573242.8383789,2.4355469,1.0029297,1.9291992.4072266,2.1376953,1.0620117,2.1376953,1.3242188,0,.2915039-.2304688.4794922-.5869141.4794922-.1669922,0-.3510742-.0351562-.5791016-.1113281-1.2011719-.4394531-2.5507812-.6625977-4.0126953-.6625977h-.0043945c-.2675781,0-.5166016,0-.7832031.0175781.0249023.4057617.0249023.8183594.0249023,1.1953125,0,.5595703.0244141,1.0341797.0429688,1.3950195l.0107422.222168c.3666992.4023438.5224609.8896484.5224609,1.6416016,0,3.9204102-4.8564453,5.3051758-6.0976562,5.3051758Zm3.78125-7.1303711c-.2851562,0-.6181641.199707-.6181641.7626953,0,.453125.2558594,1.4472656,1.0146484,1.4472656.6225586,0,.6542969-.9355469.6542969-1.1230469,0-.1049805-.0175781-.2275391-.0356445-.3500977-.1899414-.3022461-.512207-.7368164-1.0151367-.7368164Z"/>
          <path class="cls-1" d="m261.2890625,70.7231445c-.1333008,0-.2265625-.0493164-.2265625-.1196289,0-.1367188.2758789-.2851562.8208008-.440918,2.7060547-.78125,4.4726562-2.6723633,5.1635742-4.0537109-1.4248047-.4799805-3.0644531-.7695312-4.8388672-.7695312h-.0048828c-.2490234,0-.4975586.0004883-.7470703.0180664-.0678711.0180664-.1625977.0180664-.2382812.0180664-.2124023.4018555-.456543.8110352-.6806641,1.1865234-.1674805.2802734-.3237305.5419922-.4702148.7807617-.8149414,1.3432617-1.5693359,1.5439453-1.9467773,1.5439453-.7963867,0-1.2890625-.7817383-1.2890625-1.5058594,0-1.2705078,1.4414062-2.2236328,3.8554688-2.5498047,1.6464844-2.3295898,3.4829102-5.3007812,3.5087891-5.5185547,0-.0976562-.1513672-.112793-.2412109-.112793-.3334961,0-.6010742.2548828-.8842773.5249023-.3334961.3173828-.6787109.6455078-1.1860352.6455078-.4516602,0-.8935547-.5737305-.8935547-1.0019531,0-.5957031.1967773-.659668.28125-.659668.0795898,0,.1591797.0541992.2509766.1171875.1865234.1518555.4379883.2792969.7392578.2792969.2880859,0,.5253906-.1870117.800293-.4033203.3608398-.2836914.7695312-.6049805,1.4145508-.6049805.7285156,0,1.34375.4091797,1.34375.8935547,0,.3442383-.2954102.6625977-.5112305.8950195-1.5541992,1.6875-2.8115234,3.5532227-3.6435547,4.8496094.3012695-.012207.5585938-.012207.8305664-.012207,1.1430664,0,2.9179688.1254883,4.8803711.7226562,0-.2026367.0415039-.4501953.0415039-.6933594,0-.6708984-.3754883-1.0761719-1.0571289-1.1411133h-.0009766c-.1157227,0-.2387695-.0537109-.2387695-.1733398,0-.2416992.4594727-.4975586.8945312-.4975586.96875,0,1.5595703.6733398,1.5595703,1.7578125,0,.3408203-.0693359.7402344-.2011719,1.1542969,1.4155273.4619141,2.640625,1.1811523,3.6010742,2.0566406.2993164.2661133.4711914.625.4711914.984375,0,.3779297-.2045898.6416016-.4980469.6416016-.234375,0-.5068359-.1762695-.7875977-.5092773-.8779297-1.0151367-1.9492188-1.8334961-3.1835938-2.4316406-1.5268555,3.0898438-5.7089844,4.1293945-6.6879883,4.1293945Zm-1.1655273-5.1674805c-1.0795898.2485352-2.2612305.7871094-2.2612305,1.5551758,0,.2207031.0820312.456543.3125.456543.3291016,0,.6640625-.2954102,1.9487305-2.0117188Z"/>
          <path class="cls-1" d="m297.0634766,69.3725586c-.3510742,0-.5869141-.2724609-.5869141-.6777344,0-.2836914.1254883-.6230469.3530273-.9550781.0561523-.0791016.1323242-.1303711.2128906-.1845703.0620117-.0419922.128418-.0864258.1914062-.1489258.9487305-.9643555,1.9960938-2.609375,2.8212891-4.4262695-.8378906.4633789-1.3271484.6308594-1.8208008.6308594-1.1826172,0-1.8125-1.0419922-1.8125-1.7939453,0-.1806641.0986328-.2451172.1914062-.2451172.1308594,0,.296875.1289062.4726562.265625.3662109.3017578.7661133.5805664,1.2197266.5805664.6381836,0,1.3588867-.2856445,2.1938477-.6166992.3154297-.7158203.4418945-1.105957.4418945-1.496582,0-.6845703-.4433594-1.0195312-.6337891-1.1318359-.1225586-.0698242-.2480469-.1591797-.2480469-.2905273,0-.175293.3276367-.4438477.7314453-.4438477.8935547,0,1.2714844,1.2060547,1.2714844,1.6860352,0,.2802734-.1098633.5810547-.2753906.9453125,0,0-.144043.3027344-.1767578.3779297.2485352-.0917969.6245117-.2001953,1.0166016-.2001953,1.574707,0,1.7763672,1.4589844,1.7763672,2.7299805,0,3.137207-1.7617188,5.3232422-3.3427734,5.3232422-.1162109,0-.203125-.0146484-.2993164-.0307617-.5991211-.121582-.6860352-.5463867-.7700195-.9580078-.0429688-.2099609-.0869141-.4272461-.1933594-.6103516-.1757812-.2988281-.2607422-.4980469-.2607422-.6088867,0-.0361328.0654297-.1015625.1015625-.1015625.0351562,0,.1425781,0,.5673828.3955078.3481445.3300781.7060547.5048828,1.0351562.5048828.9536133,0,2.1845703-2.0991211,2.1845703-4.328125,0-1.4257812-.4760742-1.5908203-.8339844-1.5908203-.3540039,0-.7133789.1464844-1.4790039.6025391-2.4433594,5.6552734-3.3642578,6.7973633-4.0493164,6.7973633Zm11.8476562-3.3129883c-.1342773,0-.2709961-.0361328-.3754883-.0991211-.112793-.0805664-.4018555-.0986328-1.5512695-.0986328h-.1259766c-.340332,0-.4609375-.0180664-.4609375-.1196289,0-.0664062.0424805-.1416016.5541992-.262207.7075195-.1337891,1.840332-.347168,1.840332-1.3764648,0-1.3764648-1.5043945-1.8388672-2.4033203-2.1157227-.5009766-.1435547-.6035156-.2368164-.6035156-.3330078,0-.1152344.1367188-.1914062.8037109-.1914062,1.6943359,0,3.5224609,1.0849609,3.5224609,2.8383789,0,.8642578-.4487305,1.7578125-1.2001953,1.7578125Z"/>
        </g>
      </g>
      <g>
        <g>
          <g>
            <path class="cls-2" d="m14.634111,23.9989704h2.3710042c.7756676,0,1.7574653.1332456,1.7574653,1.0350356v8.1197594s-2.6625424.9646484-7.4856715.9646484c-4.8176007,0-11.276909-2.6128996-11.276909-9.8545318,0-7.2178416,6.7242198-10.0494923,11.7027081-10.0494923,2.2306507,0,5.0314029.1327943,5.0314029,1.3690109v2.4183904c-1.8934186-1.5210007-2.6564499-1.7909741-5.5304251-1.7909741-2.8729598,0-8.0128998,1.8626175-8.0128998,7.8833621,0,6.0279956,6.898872,9.6082514,12.6254987,7.3429637v-4.6159986c0-.9673411-.0561865-2.8221737-1.1821738-2.8221737Z"/>
            <path class="cls-2" d="m50.68556,33.6352999h6.0940923c-1.6879654-.6187288-2.3793532-2.6101918-2.9319669-4.0617902-.5717939-1.4461828-4.9784882-11.9793532-5.4731102-13.4397519-.4864987-1.4395261-1.1905228-1.4395261-1.7475367-1.4395261h-3.5042121c1.6889808.5519368.7684499,1.7270026.4913501,2.5450922-.2798044.8341106-6.1684468,15.158067-6.1684468,15.158067-2.0355773-.5470854-7.1358002-7.9275067-7.1358002-7.9275067,6.8013888-1.9281685,5.7453527-9.7756524-.8962768-9.7756524h-7.6338099c1.5337345.3332832,1.3948477,1.929748,1.3948477,3.159985v13.0336969c0,1.7915382-.5624295,2.2658518-1.4603987,2.7473862h5.5877399c-1.5337345-.6842798-1.1276796-2.2719444-1.1276796-3.0195186v-14.0594961h3.0195187c1.6058293,0,2.7952239,1.9314404,2.7952239,3.2458443,0,2.1215495-1.6791652,2.9539525-3.3599098,3.5769838-1.6758932.6120722-.7668673,1.9921399,0,3.1026702.7844679,1.0980068,3.0178263,4.1956977,4.3459949,5.7107183,1.3353864,1.5099286,2.5066162,1.4427981,3.1544537,1.4427981h5.0424596c-1.9551305-.6187288-.9145543-2.1297856-.6418548-2.881196.2799142-.7746521,1.5502069-4.0040392,1.5502069-4.0040392h7.5506551s.912862,2.3375104,1.7519368,4.408853c.842798,2.0747274.211997,2.3430237-.697477,2.4763821Zm-7.8420868-9.0871005l2.8828883-7.3788267,3.0652125,7.3788267h-5.9481008Z"/>
            <path class="cls-2" d="m111.9841703,33.6352999h6.1034551c-1.6818679-.6187288-2.3831892-2.6101918-2.93129-4.0617902-.5614092-1.4461828-4.9769086-11.9793532-5.4644227-13.4397519-.4941707-1.4395261-1.1905228-1.4395261-1.7529522-1.4395261h-3.4970996c1.6835606.5519368.7679909,1.7270026.4930425,2.5450922-.2887222.8341106-6.1634872,15.158067-6.1634872,15.158067-.394434.893569-.9696126.9150056-1.3193682,1.237909h5.0280181c-1.9606619-.6187288-.9034976-2.1297856-.6329447-2.881196.2698759-.7746521,1.5381346-4.0040392,1.5381346-4.0040392h7.5709666s.9134261,2.3375104,1.747988,4.408853c.8280181,2.0747274.2016172,2.3430237-.7200403,2.4763821Zm-7.8232421-9.0871005l2.860206-7.3788267,3.090598,7.3788267h-5.950804Z"/>
            <path class="cls-2" d="m90.4456547,33.9938557c.7018804-.6323806,1.3348251-1.1105303,1.3348251-3.3163745v-13.0204815c0-1.0330199-.0539257-2.2031215-1.3348251-2.6294848h5.4010154c-.5569011.4892065-1.2218879,1.106243-1.2218879,2.4873261v13.1626402c0,1.1728243-.2555472,2.8988116,1.307296,3.3163745h-5.4864235Z"/>
            <path class="cls-2" d="m61.4589302,19.1030697s-.0688229,10.4009403-.0688229,11.5744115c0,1.1728243.1542309,2.8988116,1.6890937,3.3163745h-5.1185032c.7057164-.6323806,1.2671305-1.1105303,1.2671305-3.3163745,0-2.1985935.1311019-11.9953593.1311019-13.0204815,0-1.0330199-.1311019-2.2031215-1.3982324-2.6294848h3.9274163l11.7544942,14.5459948v-11.8532156c0-.7569387.1471268-2.2035728-1.4619782-2.7550583h5.2494923c-.6324895.4886423-1.554607.6858593-1.554607,2.6917638v17.0971795s-1.4500188.2654757-3.8354645-2.5616773c-2.3847687-2.8206093-10.5811208-13.0894322-10.5811208-13.0894322Z"/>
            <path class="cls-2" d="m94.9134998,48.6527877c-15.3982701-12.7693494-21.2823995-27.8028584-.2258744-48.3260627.6549499-.6308168,1.2863106-.2539834.7668672.3344114-9.2380595,10.3767958-19.5183905,26.9962769-.2149304,47.3531781.3041745.3256111.1828883.9828131-.3260624.6384731Z"/>
          </g>
          <path class="cls-2" d="m122.3047213,33.7996952c-1.4270489,0-2.5880406-1.1609917-2.5880406-2.5880406s1.1609917-2.5880406,2.5880406-2.5880406,2.5880406,1.1609917,2.5880406,2.5880406-1.1609917,2.5880406-2.5880406,2.5880406Zm0-4.8474411c-1.2458797,0-2.2594005,1.0135209-2.2594005,2.2594005s1.0135209,2.2594005,2.2594005,2.2594005,2.2594005-1.0135209,2.2594005-2.2594005-1.0135209-2.2594005-2.2594005-2.2594005Z"/>
          <path class="cls-2" d="m122.9289449,32.6157565c-.0571269-.0532756-.0914672-.095158-.0914672-.2970277v-.3352193c0-.1980185-.0608177-.4570151-.3580059-.4570151h-.7121605v1.0892621h-.514142v-2.7802822h1.3100672c.5179932,0,.8570638.3199748.8570638.7540428,0,.1829344-.0609781.3504638-.1713807.4761109-.1067117.1219563-.198179.1713807-.4342285.2246563.2703899.0381916.5332378.118105.5332378.6399495v.2817832c0,.2780924.1028605.3504638.1789227.4037395h-.5979067Zm-.4342285-2.3460537h-.727405v.822563h.6436403c.2856344,0,.4608664-.1484336.4608664-.4340681,0-.2514546-.1485941-.3884949-.3771016-.3884949Z"/>
        </g>
        <g>
          <path class="cls-2" d="m5.8278205,70.6446365c-.4174805-.0288086-1.0795898-.1147461-1.8564453-.1147461-.4892578,0-.9926758.0288086-1.5107422.1147461h-.0146484c-.0571289,0-.1005859-.0429688-.1005859-.0859375,0-.0288086.0146484-.0722656.0722656-.0864258,1.0068359-.2158203,1.1938477-.4604492,1.1938477-1.8129883,0-1.1367188.0288086-3.2519531.0288086-5.0649414,0-1.0795898-.0141602-2.0576172-.0429688-2.6333008,0-.1152344-.0717773-.1870117-.2016602-.1870117-1.3378906,0-1.9423828.0429688-2.0288086.0576172-.8198242.0717773-.9350586.5322266-1.2231445,1.0932617-.0141602.0288086-.0571289.0576172-.0859375.0576172s-.0576172-.0288086-.0576172-.0717773v-.0146484c.0717773-.503418.3740234-1.4960938.3881836-1.8129883.0146484-.1152344.0722656-.1723633.1298828-.1723633,0,0,.0141602.0141602.0288086.0141602.4604492.2304688,1.9277344.2592773,4.1581926.2592773,1.7988386,0,2.7338972-.0288086,3.4824324-.2592773.0283203-.0141602.0429688-.0141602.0717773-.0141602.0429688,0,.0864258.0288086.0864258.1005859,0,.0288086-.0146484.0576172-.0146484.0864258-.0141602.0576172-.0141602.1723633-.0141602.3310547,0,.3017578.0141602.7192383.0141602,1.0644531,0,.3886719-.0141602.5180664-.1152344.5180664-.0283203,0-.0571289-.0288086-.0571289-.0864258-.0722656-.9926758-.5327148-1.1508789-2.6479492-1.1508789h-.4458008c-.1582031,0-.2158203.0864258-.2158203.2011719-.043457,1.1225586-.0576172,4.0292969-.0576172,6.0869141v1.6113281c0,1.0649414,0,1.7265625,1.0214844,1.7700195.0864258.0141602.144043.0717773.144043.1152344,0,.0429688-.0288086.0859375-.1152344.0859375h-.0141602Z"/>
          <path class="cls-2" d="m9.1369025,65.3785232c0-3.1367188,2.2304688-5.4106445,5.3242188-5.4106445,3.1943359,0,5.3525391,2.2304688,5.3525391,5.3530273,0,3.2519531-2.2880859,5.4819336-5.3525391,5.4819336-3.0795898,0-5.3242188-2.2875977-5.3242188-5.4243164Zm9.3671875.4169922c0-3.0073242-1.6835938-5.3813477-4.1870117-5.3813477-1.8276367,0-3.9140625,1.3095703-3.9140625,4.5039062,0,3.3237305,2.1298828,5.4243164,4.3027344,5.4243164,1.8271484,0,3.7983398-1.5107422,3.7983398-4.546875Z"/>
          <path class="cls-2" d="m21.7858283,70.6446365c-.0576172,0-.1010742-.0429688-.1010742-.1005859,0-.0288086.0288086-.0717773.0864258-.0717773.8344727-.043457.9355469-.5180664.9355469-1.640625v-.3164062c-.0146484-.7338867-.0146484-1.4389648-.0146484-2.1152344,0-1.5253906.0146484-2.8779297.0146484-3.9282227,0-1.6689453-.0146484-2.1005859-.949707-2.1870117-.0576172-.0146484-.0864258-.0576172-.0864258-.0864258,0-.0429688.0288086-.0864258.0717773-.0864258.5615234.0288086.949707.0576172,1.3813477.0576172.3740234,0,.7773438-.0141602,1.3671875-.0576172h.0141602c.0864258,0,.1298828.043457.1298828.0864258,0,.0576172-.043457.1005859-.1152344.1152344-.6474609.0717773-.7338867.546875-.7338867,1.3666992,0,1.6259766-.0146484,4.8203125-.043457,6.8491211v.4892578c0,.9931641.1010742,1.2954102,1.0361328,1.4536133.0576172.0141602.0864258.0576172.0864258.0864258,0,.0429688-.0288086.0859375-.1005859.0859375-.5039062,0-.9355469-.0859375-1.640625-.0859375-.359375,0-.7915039.0283203-1.3237305.0859375h-.0141602Zm8.6474609-10.5180664c.0864258,0,.1298828.0429688.1298828.0859375,0,.043457-.0576172.1152344-.1870117.1298828-1.3530273.1582031-4.2880859,3.3378906-5.2089844,4.2299805-.0576172.0576172-.0864258.1152344-.0864258.1728516,0,.043457.0141602.0864258.0576172.1293945,4.3022461,4.3457031,5.7265625,5.5253906,6.8920898,5.5830078.0576172,0,.1010742.0288086.1010742.0722656,0,.0859375-.043457.1005859-1.2807617.1005859h-.0288086c-2.3164062,0-3.0791016-1.4248047-6.7485352-5.5112305-.0429688-.0717773-.1293945-.1147461-.1293945-.1723633,0-.0146484.0141602-.043457.0576172-.0722656.1582031-.0859375.2875977-.1582031.4316406-.3022461,1.0214844-.9638672,3.453125-3.2084961,3.453125-4.1293945,0-.0576172-.0141602-.1152344-.0288086-.1582031v-.0288086c0-.0717773.0288086-.1293945.1152344-.1293945.6762695.0141602.9355469.0429688,1.3237305.0429688.2592773,0,.5756836-.0141602,1.1225586-.0429688h.0141602Z"/>
          <path class="cls-2" d="m31.6281135,65.3785232c0-3.1367188,2.2304688-5.4106445,5.3242188-5.4106445,3.1943359,0,5.3525391,2.2304688,5.3525391,5.3530273,0,3.2519531-2.2880859,5.4819336-5.3525391,5.4819336-3.0795898,0-5.3242188-2.2875977-5.3242188-5.4243164Zm9.3671875.4169922c0-3.0073242-1.6835938-5.3813477-4.1870117-5.3813477-1.8276367,0-3.9140625,1.3095703-3.9140625,4.5039062,0,3.3237305,2.1298828,5.4243164,4.3027344,5.4243164,1.8271484,0,3.7983398-1.5107422,3.7983398-4.546875Z"/>
          <path class="cls-2" d="m47.2116096,70.6446365c-.4169922-.0288086-1.0214844-.1147461-1.7553711-.1147461-.4458008,0-.9350586.0288086-1.453125.1147461h-.0146484c-.0576172,0-.1005859-.0576172-.1005859-.1005859s.0146484-.0717773.0717773-.0864258c.9355469-.1870117,1.1513672-.4458008,1.1513672-1.7983398.0141602-1.1513672.0429688-3.0361328.0429688-4.6479492,0-2.949707-.0141602-3.496582-1.0073242-3.7124023-.0429688-.0141602-.0571289-.0429688-.0571289-.0717773,0-.0576172.0429688-.1152344.1005859-.1152344.3740234.0288086.5756836.0864258.9785156.0864258.2299805,0,.5180664-.0141602.9350586-.0717773.3740234-.043457.7338867-.0722656,1.050293-.0722656,1.9282227,0,3.4389648.8061523,3.4389648,2.7485352,0,1.0932617-.6040039,2.0864258-1.7119141,2.7626953-.043457.0141602-.0864258.0717773-.0864258.1152344,0,.0141602.0141602.0429688.0288086.0571289.4604492.5180664.9785156,1.1513672,1.7695312,2.1152344,1.1801758,1.4389648,1.8134766,2.5039062,3.3095703,2.5756836.0576172,0,.1010742.043457.1010742.0864258,0,.1005859-.2592773.1293945-.949707.1293945-2.0288086,0-2.6479492-1.0356445-3.5253906-2.2587891-.6186523-.8491211-1.1225586-1.6547852-1.5253906-2.1875-.0717773-.1005859-.1728631-.1005859-.2734375-.1005859-.2446289-.0141602-.4892578-.0141602-.7192383-.0141602-.7197266,0-.8203125.0429688-.8203125.2734375-.0141602.1147461-.0141602,1.0791016-.0141602,1.7407227,0,1.5830078,0,2.2734375,1.0356445,2.3310547.0864258.0146484.1298828.0722656.1298828.1298828,0,.0429688-.0288086.0859375-.1152344.0859375h-.0146484Zm2.1875-7.597168c0-1.3671875-.8920898-2.5180664-2.2304688-2.5180664-.8920898,0-.9643555.2299805-.9643555.5610352v.0864258c0,.144043.0146484.4746094.0146484.6044922,0,.0859375-.0146484,3.3378906-.0146484,3.4819336,0,.2875977.1728516.3452148,1.1083984.3452148.7050781,0,.8632812-.1005859,1.050293-.2299805.7050781-.5327148,1.0361328-1.3671875,1.0361328-2.3310547Z"/>
          <path class="cls-2" d="m53.8170783,65.3785232c0-3.1367188,2.2304688-5.4106445,5.3242188-5.4106445,3.1943359,0,5.3525391,2.2304688,5.3525391,5.3530273,0,3.2519531-2.2880859,5.4819336-5.3525391,5.4819336-3.0795898,0-5.3242188-2.2875977-5.3242188-5.4243164Zm9.3671875.4169922c0-3.0073242-1.6831055-5.3813477-4.1870117-5.3813477-1.8276367,0-3.9140625,1.3095703-3.9140625,4.5039062,0,3.3237305,2.1298828,5.4243164,4.3027344,5.4243164,1.8271484,0,3.7983398-1.5107422,3.7983398-4.546875Z"/>
          <path class="cls-2" d="m73.6886604,68.2129959c-.0864258.4892578-.2875977,1.5395508-.3164062,1.9858398-.0146484.3740234-.1010742.4316406-.3740234.4316406-.1010742,0-.2304688-.0146484-.4033203-.0146484-.5175781,0-2.3881836-.0571289-4.144043-.0571289-1.0356445,0-2.0288086.0141602-2.6904297.0859375h-.0576172c-.0864258,0-.1152344-.0141602-.1152344-.0576172,0-.0429688.0288086-.1005859.1152344-.1582031,1.3525391-1.050293,6.2880859-9.3959961,6.2880859-9.6694336,0-.1147461-1.5112305-.1147461-1.6694336-.1147461-.8056641,0-1.6835938.0283203-2.2011719.0859375-.7197266.0864258-1.1225586.7915039-1.3813477,1.5112305-.0146484.0429688-.043457.0571289-.0864258.0571289-.0288086,0-.0722777-.0283203-.0722777-.0859375.0434691-.5615234.3310667-1.5253906.3310667-2.0288086,0-.1152344.0576172-.144043.1152344-.144043h.0288086c.4316406.0717773,2.0288086.1152344,3.5683594.1152344,1.2807617,0,2.5327148-.0288086,3.0361328-.1152344h.0864258c.0717773,0,.1152344.0141602.1152344.0576172,0,.0429688-.0288086.1005859-.0864258.1870117-.7197266,1.050293-4.043457,6.4604492-6.0146484,9.3813477-.043457.0722656-.0717773.1298828-.0717773.1875,0,.1005859.0859375.2011719,1.8417969.2011719,1.2373047,0,2.7338867-.0864258,3.1796875-.3886719.4174805-.2875977.6474609-.8486328.8056641-1.5395508.0146484-.0576172.043457-.0717773.0722656-.0717773.0429688,0,.1005859.0576172.1005859.144043v.0141602Z"/>
          <path class="cls-2" d="m79.3869025,59.7955154c.043457,0,.0722656.0576172.1152344.2011719.3886719,1.3959961,2.144043,5.640625,3.3959961,8.4467773.7480469,1.7119141.9926758,1.855957,1.597168,2,.0576172.0141602.1147461.0576172.1147461.1005859s-.0571289.0717773-.1870117.0717773c-.7480469-.0429688-1.2084961-.0571289-1.5395508-.0571289-.3164062,0-.503418.0141602-.7338867.0571289h-.0429688c-.0429688,0-.0576172-.0141602-.0576172-.0717773v-.0717773c.0288086-.0864258.0288086-.1870117.0288086-.2880859,0-.4892578-.2158203-1.2231445-1.1079102-3.5683594-.0146608-.0429688-.0864258-.0864258-.1728516-.0864258-.3881836.0146484-.8920898.0146484-1.3813477.0146484-.6762695,0-1.3525391,0-1.7265625-.0146484-.1005859,0-.144043.043457-.1582031.0864258-.4750977,1.3671875-.8491211,2.5180664-.8920898,2.6186523-.0576172.1728516-.1005859.3598633-.1005859.546875,0,.3452148.1435547.6474609.6328125.6621094.0717773,0,.1152344.0429688.1152344.0717773,0,.0576172-.0576172.1005859-.1728516.1005859-.546875-.0288086-.8632812-.0429688-1.2373047-.0429688-.3452148,0-.7338867.0141602-1.3813477.0429688-.1152344,0-.1728516-.0288086-.1728516-.0717773s.0722656-.0864258.1870117-.1005859c.7197266-.043457,1.1801758-.6621094,1.4536133-1.2807617.1435547-.3310547,2.90625-7.640625,3.2949219-9.1513672.043457-.1293945.0864258-.2158203.1293945-.2158203Zm-1.5249023,6.1728516c.3740234-.0141602.8486328-.0141602,1.3237305-.0141602.4746094,0,.9638672,0,1.3666992.0141602h.043457c.0429688,0,.0717773-.0141602.0717773-.0429688,0-.0146484,0-.043457-.0141602-.0576172-1.3813477-3.7412109-1.4389648-3.8276367-1.4677734-3.8276367s-.0576172.0429688-.0722656.1152344l-1.309082,3.7265625v.0288086c0,.0288086.0141602.0576172.0429688.0576172h.0146484Z"/>
          <path class="cls-2" d="m85.2584846,60.1265701c.0717648,0,.1152344.0576172.1152344.1005859s-.0146484.0717773-.0576172.0864258c-.3164062.0576172-.5610352.2011719-.5610352.6040039,0,.144043.0288086.3310547.1005859.546875.5180664,1.640625,1.4819336,4.0864258,2.0722656,6.5473633.0283203.0859375.0571289.1435547.0859375.1435547s.0576172-.0429688.0864258-.1293945c.546875-1.5107422,2.4174805-6.5039062,2.7915039-7.8706055.0429688-.1728516.0864258-.2734375.1293945-.2734375.043457,0,.0864258.0859375.144043.2587891.4462891,1.4819336,3.0649414,8.0869141,3.2089844,8.0869141.0141602,0,.0429688-.043457.0717773-.1298828.5180664-1.5683594,1.5683594-4.3452148,2.0429688-5.7553711.1586914-.4892578.3310547-1.050293.3310547-1.5830078,0-.1147461-.0141602-.2299805-.0288086-.3452148-.0141602-.0717773-.0288086-.1293945-.0288086-.1728516,0-.0717773.0288086-.1005859.1298828-.1005859h.0571289c.2158203.0146484.4750977.0288086.8349609.0288086.3017578,0,.6762695-.0141602,1.1796875-.0288086h.0288086c.0864258,0,.1152344.0288086.1152344.0717773,0,.043457-.0722656.1152344-.1728516.1298828-.6616211.0717773-1.1943359.5463867-1.4677734,1.1655273-.1435547.3305664-2.8344727,7.4677734-3.3237305,9.1225586-.0429688.1293945-.0864258.2158203-.1293945.2158203-.0288086,0-.0722656-.0576172-.1005859-.2016602-.4033203-1.5249023-1.9140625-4.949707-3.0649414-8.2158203-.0146484-.0288086-.0288086-.043457-.043457-.043457-.1435547,0-2.6904297,7.5688477-2.8920898,8.2451172-.0429688.1293945-.0864258.2158203-.1152344.2158203-.0429688,0-.0717773-.0576172-.1147461-.2016602-.5180664-1.8847656-1.7700195-5.6259766-2.7773438-8.4174805-.6333008-1.7124023-.9208984-1.7841797-1.5825195-1.8994141-.0576172-.0141602-.1010742-.0717773-.1010742-.1152344,0-.0429688.043457-.0859375.1293945-.0859375h.0288086c.5756836.0429688,1.0507812.0717773,1.4677734.0717773.4892578,0,.9355469-.0288086,1.3959961-.0717773h.0141602Z"/>
          <path class="cls-2" d="m100.7125861,59.7955154c.043457,0,.0722656.0576172.1152344.2011719.3886719,1.3959961,2.144043,5.640625,3.3959961,8.4467773.7480469,1.7119141.9926758,1.855957,1.597168,2,.0576172.0141602.1147461.0576172.1147461.1005859s-.0571289.0717773-.1870117.0717773c-.7480469-.0429688-1.2084961-.0571289-1.5395508-.0571289-.3164062,0-.503418.0141602-.7338867.0571289h-.0429688c-.043457,0-.0576172-.0141602-.0576172-.0717773v-.0717773c.0288086-.0864258.0288086-.1870117.0288086-.2880859,0-.4892578-.2158203-1.2231445-1.1079102-3.5683594-.0146484-.0429688-.0864258-.0864258-.1728516-.0864258-.3881836.0146484-.8920898.0146484-1.3813477.0146484-.6762695,0-1.3525391,0-1.7265625-.0146484-.1005859,0-.144043.043457-.1582031.0864258-.4750977,1.3671875-.8491211,2.5180664-.8920898,2.6186523-.0576172.1728516-.1010742.3598633-.1010742.546875,0,.3452148.144043.6474609.6333008.6621094.0717773,0,.1152344.0429688.1152344.0717773,0,.0576172-.0576172.1005859-.1728516.1005859-.546875-.0288086-.8632812-.0429688-1.2373047-.0429688-.3452148,0-.7338867.0141602-1.3813477.0429688-.1152472,0-.1728516-.0288086-.1728516-.0717773s.0722656-.0864258.1870117-.1005859c.7197266-.043457,1.1801758-.6621094,1.4536133-1.2807617.1435547-.3310547,2.90625-7.640625,3.2949219-9.1513672.0429688-.1293945.0864258-.2158203.1293945-.2158203Zm-1.5249023,6.1728516c.3740234-.0141602.8486328-.0141602,1.3237305-.0141602.4746094,0,.9638672,0,1.3666992.0141602h.043457c.0429688,0,.0717773-.0141602.0717773-.0429688,0-.0146484,0-.043457-.0141602-.0576172-1.3813477-3.7412109-1.4389648-3.8276367-1.4677734-3.8276367s-.0576172.0429688-.0722656.1152344l-1.309082,3.7265625v.0288086c0,.0288086.0141602.0576172.0429688.0576172h.0146484Z"/>
        </g>
      </g>
      <g>
        <g>
          <g>
            <path class="cls-3" d="m492.0785205,66.6874311c-.0961262,0-.1540203-.0578942-.1540203-.0961262,0-.0393243.038232-.0775563.1157883-.0972185.9432379-.1540203,1.1546062-.6160813,1.1742684-1.3861829.019116-1.0388179.038232-2.0787281.038232-3.1186384q0-1.8864758-.6351973-1.8864758c-.3271566,0-.4041668-.0196622-.4041668-.3462726,0-.0961262.038232-.2119145.0961262-.2119145.9050059-.0775563,1.0011321-.3277028,1.0011321-.6357434,0-.1540203.019116-.2883785.019116-.423829,0-.2108221-.019116-.462061-.038232-.8662277v-.4227366c0-4.1585486,2.6374614-4.8521862,4.2546748-4.8521862,1.3091727,0,1.3091727.2315766,1.3091727.2883785,0,.0578942-.019116.1354505-.038232.2512388-.0387782.1540203-.0387782.8269034-.0966723,1.2125004-.019116.0578942-.0770102.1343582-.1349043.1343582-.038232,0-.076464-.038232-.076464-.1540203-.0196622-.6160813-.7127536-1.0202481-1.5019712-1.0202481-.8858899,0-1.925254.5396173-2.2141786,1.94437-.1343582.7122074-.2119145,1.4637392-.2119145,2.7144716v1.6756537c.0196622.076464.0775563.1343582.2315766.1343582.6160813,0,.8083336,0,1.3086265-.038232.0966723-.0196622.1736825.1922523.1736825.3845046,0,.1736825-.0578942.347365-.1736825.347365-.481177-.0393243-.6734293-.0393243-1.3086265-.0393243-.2506926,0-.2889246.1157883-.2889246.3659348-.019116,1.1174666-.0387782,2.2338408-.0387782,3.350215v1.2321625c0,.6543133.1927985,1.2900567,1.0399102,1.3479509.0961262,0,.1540203.0578942.1540203.1157883,0,.0568018-.0387782.0961262-.1349043.0961262-.5969653-.0393243-1.1742684-.1157883-1.887022-.1157883-.462061,0-.9623539.038232-1.5593192.1157883h-.019116Z"/>
            <path class="cls-3" d="m500.4709894,66.8796834c-2.2720728,0-3.388447-1.6942235-3.388447-3.5042353,0-2.3103048,1.5975512-4.1006544,3.6189313-4.1006544.9820161,0,1.8482438.423829,2.2338408,1.1163742.1152422.1933447.1731363.1354505.2501465.2501465.038232.0393243.0578942.1157883.0578942.1736825,0,.1540203-.1349043.3462726-.423829.4041668-.5002929.1157883-2.964618,1.1556986-4.1394326,1.6177595-.1731363.0578942-.2310305.114696-.2310305.2687163,0,.5013853.2501465,2.9842802,2.6762396,2.9842802.7509856,0,1.5593192-.2883785,2.1180525-.9820161.057348-.0568018.1152422-.0961262.1343582-.0961262.0387782,0,.0770102.0393243.0770102.0961262,0,.2512388-1.0011321,1.7717798-2.983734,1.7717798Zm.019116-7.0467027c-.8858899,0-1.9449162.6739754-2.0410423,2.2720728,0,.1157883.0387782.1736825.0961262.1736825.0196622,0,.0775563-.0196622.1157883-.0393243,2.6374614-1.0967121,3.0421744-1.2703945,3.0421744-1.5402032,0-.0578942-.0775563-.8662277-1.2130466-.8662277Z"/>
            <path class="cls-3" d="m511.2305648,66.6874311c-.6936376-.0578942-1.0590262-.0578942-1.2900567-.0578942-.3277028,0-.3659348.0185698-.5390711.0578942-.0578942.0185698-.0966723.0185698-.1349043.0185698-.0770102,0-.1157883-.038232-.1731363-.1540203-.0578942-.0961262-.0770102-.2501465-.1157883-.4423988-.019116-.0961262-.038232-.1540203-.0961262-.1540203-.0387782,0-.0770102.0196622-.1349043.0578942-.8662277.5778493-1.6363293.8083336-2.2906426.8083336-1.2321625,0-2.0022641-.8083336-2.0022641-1.6942235,0-.7122074.5002929-1.2518247,1.2321625-1.5784352.8274496-.3659348,2.3294208-.5975114,2.983734-.8476579.2698086-.0961262.2889246-.1922523.2889246-.462061v-.4041668c-.019116-1.2703945-.7509856-1.8668136-1.5210872-1.8668136-.7892176,0-1.6363293.6543133-1.7712337,1.8864758,0,.076464-.0578942.0961262-.0961262.0961262-.0578942,0-.1157883-.038232-.1157883-.0961262-.038232-.7122074-.2883785-1.0202481-.3653886-1.3097189,0-.038232-.019116-.076464-.019116-.114696,0-.3277028,1.6745613-1.1360364,2.8684919-1.1360364.2883785,0,.5773031.038232.8279958.1343582.7313234.2698086,1.482309.6936376,1.482309,2.4643251,0,.5964191-.0387782,1.6177595-.0387782,2.4446629,0,.9820161.0578942,2.1180525,1.0399102,2.1180525.0961262,0,.1349043.0578942.1349043.1354505,0,.038232-.0387782.0961262-.1349043.0961262h-.019116Zm-2.3103048-1.7138857c0-.5002929,0-1.0399102.019116-1.5598654,0-.1343582-.019116-.1922523-.0966723-.1922523-.057348,0-1.8094657.4817231-2.3485368.7122074-.3659348.1540203-.6351973.423829-.6351973.9241219,0,.6739754.5773031,1.1174666,1.3474047,1.1174666.442945,0,.9629001-.1540203,1.444077-.5013853.2501465-.1540203.2698086-.2304843.2698086-.5002929Z"/>
            <path class="cls-3" d="m514.9630998,66.8796834c-.9820161,0-1.8291278-.6160813-1.9449162-1.6559915-.019116-.2119145-.038232-.4806308-.038232-.7886714,0-1.0213404.0961262-2.4643251.0961262-3.6200237,0-.6357434-.1540203-.7122074-.6160813-.7122074-.2889246,0-.3850508,0-.3850508-.3277028,0-.114696.038232-.2304843.0961262-.2304843,1.1742684-.0961262,1.925254-1.7324555,2.1950626-2.1180525.038232-.0578942.0770102-.076464.1152422-.076464.0578942,0,.1157883.076464.1157883.1540203-.0387782.3845046-.0961262,1.2125004-.1157883,1.7510253v.0775563c0,.1157883.0387782.1922523.2310305.1922523.6351973,0,1.3670669,0,1.8673598-.038232.0966723-.0196622.1540203.1736825.1540203.3659348s-.057348.3659348-.1731363.3659348c-.481177-.0393243-1.2130466-.0393243-1.8482438-.0393243-.2692625,0-.2889246.1157883-.3080406.3659348-.038232,1.2518247-.0770102,2.8881541-.0770102,3.850508,0,.7515318,0,1.7717798,1.2709407,1.7717798.481177,0,.9623539-.1922523,1.2703945-.5002929.0387782-.0393243.0578942-.0393243.0966723-.0393243.057348,0,.1152422.0393243.1152422.0961262,0,.1157883-.8279958,1.1556986-2.1175063,1.1556986Z"/>
            <path class="cls-3" d="m518.3488159,65.705415c0-.0961262.0387782-1.0399102,1.0011321-1.0399102.6548594,0,.9437841.4423988.9437841.9241219,0,.8858899-.7127536,1.0399102-1.0207942,1.0399102-.5773031,0-.9241219-.423829-.9241219-.9241219Z"/>
          </g>
          <g>
            <path class="cls-3" d="m610.2208437,66.7638951c-.9077368,0-2.3572755-.3976127-2.3572755-.541802,0-.0469707.0163851-.079741.0644482-.1430969.3976127-.5570948.3976127-2.2294714.4139979-2.8499221.0152928-1.5128946.079741-3.5195281.079741-5.1438417,0-.8596737-.0163851-1.6079284-.0644482-2.1016673-.0469707-.462061-.3659348-.6532209-.8432886-.6696061-.0644482,0-.0961262-.0316779-.0961262-.079741,0-.0469707.0316779-.0950338.0961262-.111419.5887727-.0633559,1.4331536-.3812276,1.9421853-.6685137.0316779-.0152928.0644482-.0316779.0961262-.0316779.0633559,0,.0950338.0633559.0950338.1430969-.0633559.5570948-.1430969,1.4812167-.270901,6.8631891,0,.111419,0,.1758672.0644482.1758672.0152928,0,.0633559-.0163851.111419-.0644482,1.1939306-.9077368,1.3053495-.9710926,1.5281874-.9710926.5581871,0,2.9143703.4937389,2.9143703,2.7395955,0,1.6712843-1.4495387,3.4550799-3.774044,3.4550799Zm-.8760588-2.2130863c0,1.7510253.0316779,1.7674105.9077368,1.7674105,1.6559915,0,2.5954062-1.4178608,2.5954062-2.7232103,0-1.3850905-.9863854-2.0863745-1.9105074-2.0863745-.2861938,0-1.5762505.159482-1.5762505,1.2267008-.0163851.6685137-.0163851,1.3053495-.0163851,1.8154735Z"/>
            <path class="cls-3" d="m617.1604967,67.257634c.0950338-.19116.1267118-.3342569.1267118-.4773538,0-.6379281-1.6079284-4.7779069-1.6712843-4.9046187-.239223-.4467682-.462061-.972185-.9077368-1.0191557-.0961262-.0163851-.159482-.079741-.159482-.1278041,0-.0316779.0316779-.0633559.111419-.0633559h.0480631c.19116.0316779.6685137.0469707,1.2572864.0469707.3823199,0,.8290881,0,1.2747639-.0316779.079741,0,.111419.0480631.111419.0961262,0,.0316779-.0316779.079741-.0961262.079741-.3495497.0316779-.5254168.3025789-.5254168.6368358,0,.4456758,1.1950229,3.774044,1.3217346,3.774044.0316779,0,.0644482-.0480631.111419-.1441892,1.2583788-2.8335369,1.4331536-3.4550799,1.4331536-4.0919157,0-.079741,0-.1278041-.0152928-.159482v-.0480631c0-.079741.0316779-.1430969.1267118-.1430969.2228379.0163851.541802.0316779.860766.0316779.2698086,0,.5407096-.0152928.7635475-.0316779.079741,0,.111419.0480631.111419.079741,0,.0480631-.0316779.0961262-.111419.0961262-.5887727.0316779-.8913516.5407096-1.3534126,1.4484464-.8760588,1.7204397-1.9585704,4.2677829-2.9296631,6.1782902-.5898651,1.1469598-1.2736716,2.2939196-2.6434693,2.5167575-.1758672,0-.2075451-.0480631-.2075451-.0961262,0-.0316779.0163851-.0633559.0480631-.1267118.1278041-.2556082.4139979-.6532209.4773538-.892444.0480631-.1430969.159482-.1267118.350642-.1430969.7165768-.0480631,1.1786378-.8279958,1.5609577-1.4965095l.5254168-.9874778Z"/>
          </g>
          <g>
            <path class="cls-3" d="m529.0974665,66.8941676c2.5933876,0,4.5495964-1.9089512,4.5495964-4.4417469,0-2.5630995-1.7693249-3.6033314-3.5006369-4.2826128l-.970928-.3779043c-1.1752671-.450295-1.7472317-1.01817-1.7472317-1.7375012,0-1.0530491,1.0623095-1.7045964,2.0465718-1.7045964.9046796,0,1.4987374.3496375,1.987014,1.1690935l.1119392.1884351,1.7174606-1.0304858-.1037286-.1848312c-.7824772-1.3929718-2.0881572-2.1600621-3.6767405-2.1600621-2.0404139,0-4.2081695,1.3046615-4.2081695,3.7224469,0,2.0342716,1.5567596,2.9779826,3.0806457,3.6341366l.9360019.3958923c1.3595969.5647725,2.2016319,1.1577805,2.2016319,2.3679894,0,1.3590642-1.0012005,2.4239277-2.2796634,2.4239277-.6823682,0-1.3067141-.2520825-1.7585447-.7090524-.4251306-.43027-.6546341-1.0124978-.647442-1.6399149l.0030711-.2726402-2.1713438.4574714.0261985.2002495c.3049809,2.3073818,2.1569597,3.9817058,4.404298,3.9817058"/>
            <path class="cls-3" d="m551.5640964,59.6130772c0-4.015112-3.2824308-7.2810904-7.3175521-7.2810904-4.0346199,0-7.3175678,3.2659784-7.3175678,7.2810904,0,4.082896,3.2146468,7.2811217,7.3175678,7.2811217,4.1034067,0,7.3175521-3.1982257,7.3175521-7.2811217m-7.3175521,5.2632712c-2.8624396,0-5.1914133-2.3613144-5.1914133-5.2632712,0-3.0005459,2.2319357-5.2632712,5.1914133-5.2632712,2.9594619,0,5.1913976,2.2627253,5.1913976,5.2632712,0,2.9019567-2.3289737,5.2632712-5.1913976,5.2632712Z"/>
            <polyline class="cls-3" points="561.7697695 64.6247674 557.6545328 64.6247674 557.6545328 52.6195125 555.5283783 52.6195125 555.5283783 66.6066733 561.7697695 66.6066733 561.7697695 64.6247674"/>
            <rect class="cls-3" x="565.7910395" y="52.6194812" width="2.1266716" height="13.9871607"/>
            <path class="cls-3" d="m575.9474023,52.6195125h-3.0221064v13.9871607h2.9682052c4.857147,0,7.8746311-2.7073794,7.8746311-7.065454,0-4.2045813-3.0698498-6.9217068-7.8207299-6.9217068m-.8964534,1.9818746h.3753189c2.8352226,0,6.2152084.8697848,6.2152084,5.0117215,0,4.1424381-3.3799858,5.0116901-6.2152084,5.0116901h-.3753189v-10.0234116Z"/>
            <path class="cls-3" d="m594.6012537,52.3319868c-4.035137,0-7.3175678,3.2659784-7.3175678,7.2810904,0,4.082896,3.2141454,7.2811217,7.3175678,7.2811217,4.1028896,0,7.3175364-3.1982257,7.3175364-7.2811217,0-4.015112-3.2829322-7.2810904-7.3175364-7.2810904m0,12.5443616c-2.8629723,0-5.191946-2.3613144-5.191946-5.2632712,0-3.0005459,2.2319514-5.2632712,5.191946-5.2632712,2.9589291,0,5.1908805,2.2627253,5.1908805,5.2632712,0,2.9019567-2.3284723,5.2632712-5.1908805,5.2632712Z"/>
          </g>
          <g>
            <path class="cls-3" d="m652.3212008,66.5334069h2.7913042l1.6421733-5.369598c.1971097-.640171.157031-1.2155658-.1389017-1.6180121-.2640975-.3601726-.732962-.603393-1.2732209-.605035l-11.8120231.001642-2.3213339,7.5844183,2.7913042.0065848,1.992477-6.5110382h2.7622002l-1.9913544,6.5110382h2.7940521l1.9908183-6.5110382h1.2787167c.4249487.0010891.7477905.1361538.9344616.3881708.2108323.287689.2185063.703858.0543543,1.2347842l-1.495028,4.8880832Z"/>
            <path class="cls-3" d="m677.3642727,58.9425714h-2.7907681l-1.6421733,5.3696147c-.1976626.640171-.1575839,1.2155658.1389017,1.6169063.2646337.3612785.7335149.6044989,1.2721151.605588l11.8136818-.0010891,2.3202281-7.5844183-2.7913042-.0066016-1.992477,6.5110549h-2.7622002l1.9908015-6.5110549h-2.7929463l-1.9908183,6.5110549h-1.2792696c-.4238429-.0010891-.7477905-.1350647-.9333558-.3881708-.2124744-.2887949-.219076-.703858-.0549072-1.2347842l1.4944918-4.8881Z"/>
            <path class="cls-3" d="m635.1804796,61.3688775c-1.2254682.5885813-2.4964942.9888327-3.71206,1.015725,2.6765637.025267,4.6009471,3.5380056,4.9089604,4.1413986l3.049906.0076907c-.7801785-1.5268799-2.9697485-4.7810334-4.2468064-5.1648143"/>
            <polygon class="cls-3" points="626.2321438 66.5334069 629.0250901 66.5334069 630.290637 62.3892772 627.4987631 62.3892772 626.2321438 66.5334069"/>
            <polygon class="cls-3" points="632.1377616 56.3532862 629.3453347 56.3467181 627.6834069 61.7843929 631.3454857 58.9425546 632.1377616 56.3532862"/>
            <path class="cls-3" d="m637.9578434,56.3551292c-6.5818797,5.6040386-13.113795,6.0339469-13.113795,6.0339469h6.4929257c.0439325,0,.0884011-.0033008.1312278-.0043899,1.2155658-.0269091,2.4865918-.4271604,3.7120432-1.015725,3.1718011-1.5213841,6.0399788-4.284707,6.8459605-5.013832h-4.0683621Z"/>
            <path class="cls-3" d="m662.890129,65.1657027c-.5331211-.001642-.9053744-.1542663-1.1030203-.4540527-.1718594-.2629917-.2053533-.6017342-.0708248-1.0475601l.0784987-.251464h8.5079051l.4035522-1.3204374-8.5079051.0011059.5440959-1.7810918h8.5073522l.4200227-1.3698489h-11.3014211l-1.6932268,5.55518c-.1636158.539706-.1191472,1.0431702.127374,1.4176184.2734135.4189168.7873163.6193106,1.4280402.6182215h9.1058191l.4309806-1.3693127-6.8772427.001642Z"/>
          </g>
        </g>
        <g>
          <path class="cls-2" d="m413.4996955,23.3406024c.3325195,0,3.0932617,2.0957031,3.0932617,2.7607422,0,.2324219-.1992188.4326172-.6318359.4326172-.1665039,0-.3657227-.0332031-.5986328-.0996094-.1000977-.0332031-.1665039-.0332031-.2329102-.0332031-.2661133,0-.4658203.1328125-.7319336.3320312-5.421875,3.7255859-12.1079102,4.4912109-12.9394531,4.4912109-.3330078,0-.5322266-.0664062-.5322266-.1669922,0-.0996094.2324219-.1992188.7314453-.3320312,2.7275391-.6318359,7.5844727-2.5947266,10.578125-5.421875.4326172-.3994141.8979492-1.1982422,1.0976562-1.6972656.0332031-.1660156.0664062-.265625.1665039-.265625Zm1.0644531-1.03125c-1.862793,0-8.3496094.0664062-11.3764648.3994141h-.0332031c-.6318359,0-1.4970703-1.3310547-1.4970703-1.7636719,1.7299805.2001953,4.4575195.3330078,7.019043.4326172.0332031-2.1953125.0332031-9.6132812.0332031-10.1123047,0-.4326172-.1000977-2.6943359-.3662109-3.9580078-.0332031-.0996094-.0332031-.1669922-.0332031-.2333984,0-.0332031,0-.0664062.0332031-.0664062.3330078,0,2.1958008.5986328,3.1269531,1.2304688l.1665039.1337891h2.7275391v-2.6943359c0-.7988281,0-2.3955078-.3657227-3.5927734-.0336914-.0996094-.0336914-.1660156-.0336914-.1992188,0,0,0-.0673828.2998047-.0673828.2324219,0,3.2265625.2333984,3.2265625.9316406,0,.2001953-.2661133.4326172-.6987305.6318359-.6318359.2666016-.6318359.4326172-.6318359,4.9902344h3.6254883v-2.6943359c0-.7988281,0-2.3955078-.3325195-3.5927734-.0332031-.0996094-.0664062-.1660156-.0664062-.1992188,0-.0341797.0332031-.0673828.2993164-.0673828.0664062,0,3.2597656.2001953,3.2597656.9316406,0,.2001953-.2661133.4326172-.7314453.6318359-.5991211.2666016-.5991211.4658203-.5991211,4.9902344h3.1933594c.1665039,0,.2661133-.0332031.4326172-.2001953.199707-.265625.4990234-.5986328.6987305-.7646484.1328125-.0664062.2324219-.1328125.3657227-.1328125.2661133,0,2.6279297,1.2304688,2.6279297,1.9287109,0,.3662109-.4326172.5986328-.831543.7988281-.5654297.2988281-.5654297.5322266-.5654297,1.3964844,0,.2333984-.0336914,2.2958984-.0336914,4.5244141s.0336914,4.6240234.0336914,5.5546875h1.0976562c.3657227,0,.465332-.1660156.5654297-.2988281,1.2973633-2.0957031,1.6298616-2.3291016,1.862793-2.3291016.7651367,0,3.0932617,2.4287109,3.0932617,3.0605469,0,.2001953-.1660156.3994141-.7314453.3994141h-18.8608398Zm-.199707-13.0400391h-2.9604492l-.2329102.1669922c-.4326172.265625-.4990234.265625-.5322266,1.3300781-.0332031.2333984-.0332031,1.796875-.0332031,3.7255859h3.7587891v-5.2226562Zm-3.7587891,6.1210938v6.0205078c1.5966797.0332031,2.9272461.0664062,3.7255859.0664062.0332031-1.0976562.0332031-3.5585938.0332031-6.0869141h-3.7587891Zm9.1806641-6.1210938h-3.6254883c-.0332031,1.7636719-.0332031,3.3603516-.0332031,5.2226562h3.6586914v-5.2226562Zm-.0332031,12.2080078c.0332031-1.0976562.0332031-3.5585938.0332031-6.0869141h-3.6586914c0,2.5615234,0,5.1894531.0332031,6.0869141h3.5922852Zm7.684082,8.3496094c-1.1640625-1.7958984-4.6567383-4.1582031-7.0185547-5.5878906-.1665039-.1005859-.2329102-.1669922-.2329102-.2333984s.0664062-.0996094.199707-.0996094c.7651367,0,9.7128906,2.2949219,9.7128906,5.3886719,0,.8320312-.5654297,1.4970703-1.2641602,1.4970703-.4321289,0-.9311523-.2666016-1.3969727-.9648438Zm-1.8295898-15.3349609c-.0332031-2.2949219-.0332031-4.390625-.0664062-4.8564453,0-.0996094-.0664062-.3662109-.3994141-.3662109h-3.5258789c-.0332031,1.6972656-.0332031,3.4267578-.0332031,5.2226562h4.0249023Zm0,.8984375h-4.0249023v6.0869141h4.0249023v-6.0869141Z"/>
          <path class="cls-2" d="m460.0236213,20.9450946h-16.3994141c-1.6630859,8.9150391-8.0830078,10.0791016-8.1162109,10.0791016-.0668945,0-.1000977-.0332031-.1000977-.0664062,0-.0664062.2329102-.265625.7651367-.6318359,5.0561523-3.4931641,5.9541016-9.0478516,5.9541016-13.5722656v-.265625c0-.7314453-.1992188-3.1933594-.4985352-4.2246094-.0336914-.0664062-.0336914-.0996094-.0336914-.1328125-.1992188-.0996094-.3325195-.2998047-.3325195-.5986328v-.1337891c.1000977-.9638672.1665039-1.6962891.1665039-2.6611328v-.4648438c0-.5664062-.0332031-1.4638672-.199707-2.2294922-.0332031-.0996094-.0332031-.1660156-.0332031-.1992188,0-.0996094.0332031-.0996094.0664062-.0996094.2329102,0,1.862793.6650391,2.3286133,1.03125l.1328125.0996094h4.6572266c.1328125,0,.2661133-.0996094.3657227-.2333984.1333008-.1660156.565918-.7646484.8984375-.7646484.4321289,0,1.9956055,1.0976562,1.9956055,1.4970703,0,.265625-.3657227.4326172-.5986328.5986328-.4658203.265625-.5322266.4326172-.5322266,1.0644531,0,.4326172.0996094,1.0976562.1665039,2.0625v.0996094c0,.5654297-.4990234.9316406-.9648438.9316406-.3989258,0-.7651367-.2666016-.7651367-.8320312.0332031-.6318359.0664062-1.296875.0664062-1.9619141,0-.4326172-.0332031-.8984375-.0664062-1.3310547,0-.0996094-.0664062-.2998047-.2993164-.2998047h-5.0893555l-.1333008.1005859c-.0664062.0332031-.3657227.265625-.3657227,1.3964844,0,.5322266.0332031,1.1982422.0664062,2.0957031,0,.4658203-.3989258.765625-.831543.8652344.6323242.2324219,1.862793.6650391,2.4614258.9980469l.1665039.1328125h6.3535156v-.4990234c0-.2998047-.0332031-1.296875-.199707-2.1621094v-.0996094c0-.1328125.0996094-.1328125.199707-.1328125.0664062,0,1.0644531,0,2.5947266.3984375.0996094-.6650391.1328125-1.2636719.1660156-2.0625,0-.3652344,0-1.6298828-.2329102-2.6943359-.0332031-.0996094-.0332031-.1660156-.0332031-.1992188,0-.0996094.0332031-.0996094.0664062-.0996094.0668945,0,.1000977,0,.199707.0332031.3662109.0996094,1.5302734.5654297,2.1289062.9980469l.1000977.0996094h4.8896484c.1328125,0,.2993164-.0996094.3994141-.2333984.4321289-.7314453.7978516-.7646484.8647461-.7646484.3989258,0,2.0957031.9648438,2.0957031,1.4970703,0,.265625-.3330078.4326172-.5991211.5986328-.5322266.2998047-.4990234.4990234-.5322266,1.0644531,0,.4658203.1333008,1.1308594.199707,1.7294922.0332031.4326172-.2329102,1.03125-1.0644531,1.03125-.3989258,0-.7651367-.2324219-.7651367-.7646484v-.0332031c.0332031-.6992188.0332031-1.2978516.0332031-1.8300781,0-.3994141,0-.7978516-.0332031-1.1640625,0-.0996094-.0996094-.2998047-.3325195-.2998047h-5.2890625l-.1328125.1005859c-.3662109.2324219-.3662109.4658203-.3994141,1.03125,0,.5986328.0332031,1.03125.0664062,2.1621094,0,.5654297-.5986328.8974609-1.0976562.8974609-.199707,0-.3657227-.0332031-.4990234-.1328125l-.2993164.0996094c-.4321289.1669922-.5322266.2333984-.5654297.8320312-.0332031.1992188-.0332031.3994141-.0332031.5986328h6.2539062c.1992188,0,.4321289-.0996094.5322266-.2324219.0664062-.1005859,1.0976562-1.4970703,1.6298828-1.4970703.2993164,0,2.7607422,1.3964844,2.7607422,2.0957031,0,.1992188-.1328125.3652344-.6650391.3652344h-18.7944336c-.1000977.1005859-.199707.2001953-.3994141.2998047-.4321289.2324219-.3989258.1660156-.4321289,1.3300781,0,.2998047-.0332031.5654297-.0332031.8652344h4.1245117c0-.8320312-.0332031-1.4306641-.0996094-2.0625,0-.0996094-.0332031-.1660156-.0332031-.1992188,0,0,0-.0332031.2329102-.0332031.9643555.0664062,2.5610352.2988281,2.5610352.6982422,0,.1660156-.199707.3330078-.3989258.3994141-.2998047.1328125-.3662109.2324219-.3994141.7314453,0,.1328125-.0332031.2998047-.0332031.4658203h3.8583984c0-.8320312-.0332031-1.4306641-.0996094-2.0625,0-.0996094-.0332031-.1328125-.0332031-.1660156s0-.0664062.2329102-.0664062c2.4614258.1660156,2.5947266.5654297,2.5947266.6650391,0,.1328125-.1665039.265625-.4326172.3994141-.3325195.1660156-.3657227.265625-.3989258.7646484,0,.1328125-.0336914.2998047-.0336914.4658203h3.6923828c.1665039,0,.3325195-.0664062.4326172-.2324219.1665039-.2666016.4990234-.6992188.6987305-.7988281.0664062-.0664062.1328125-.0996094.265625-.0996094.0668945,0,.1665039,0,.2666016.0664062.1992188.0664062,2.1289062.9648438,2.1289062,1.6298828,0,.3330078-.3994141.5322266-.6987305.6982422-.4658203.2666016-.5654297.3330078-.5654297.8652344,0,.4990234.0996094,1.7294922.1660156,2.2949219v.1337891c0,.5986328-.6318359.9970703-1.1972656.9970703-.4326172,0-.831543-.2324219-.831543-.7978516v-.3330078Zm-13.8046875-16.0664062c-1.03125,0-4.0917969,0-5.621582.2666016h-.0332031c-.3662109,0-1.230957-.9980469-1.230957-1.5634766,1.8959961.3652344,5.8876953.4658203,6.9521484.4658203h1.2973633c.0996094,0,.2993164-.1337891.3989258-.2998047.2998047-.4990234,1.230957-1.6962891,1.6635742-1.6962891.0664062,0,.1328125.0332031.1660156.0332031.8984375.3662109,2.4619141,1.8291016,2.4619141,2.328125,0,.2333984-.1665039.4658203-.6987305.4658203h-5.3554688Zm1.3305664,20.390625v3.0605469c2.1953125-.4326172,4.4907227-.9980469,6.0874023-1.4296875.0996094-.0341797.1992188-.0341797.2661133-.0341797.1660156,0,.2329102.0341797.2329102.1337891,0,.4658203-4.5908203,2.1953125-12.0751953,4.2578125-.2993164.0664062-.4321289.3984375-.6650391.3984375-.3330078,0-1.7631836-2.0947266-1.7631836-2.3613281,0,0,0-.0332031.2661133-.0332031.3325195.0332031.7319336.0332031,1.0976562.0332031,1.1308594,0,1.4638672-.0332031,4.7568359-.5986328,0-1.1972656.0332031-3.0605469.0664062-4.0585938,0-1.1640625-.1992188-2.1953125-.3657227-2.8935547-.0332031-.0664062-.0332031-.1328125-.0332031-.1660156,0-.1005859.0996094-.1005859.3325195-.1005859.4990234.0332031,3.0605469.3994141,3.0605469.9316406,0,.2333984-.3994141.4658203-.8320312.6318359-.1660156.0664062-.3325195.0332031-.3989258,1.03125,0,.1328125-.0332031.2998047-.0332031.4326172h1.862793c.0996094,0,.3325195-.0664062.4326172-.1660156.3657227-.4658203.6982422-1.03125,1.1308594-1.4638672.0996094-.0664062.1992188-.0996094.3325195-.0996094.0664062,0,.1333008.0332031.1665039.0332031,1.03125.3994141,2.328125,1.6962891,2.328125,2.0292969,0,.1992188-.1328125.4316406-.6650391.4316406h-5.5883789Zm-3.925293-16.1992188c0-.0664062.9316406-.2998047,1.7963867-.2998047,1.9624023,0,2.527832.9980469,2.527832,1.6972656,0,.5654297-.3657227,1.0644531-.8979492,1.0644531-.2993164,0-.6655273-.1669922-.9980469-.6328125-.465332-.5986328-1.3305664-1.2304688-2.1289062-1.6298828-.199707-.1328125-.2993164-.1660156-.2993164-.1992188Zm.3994141,8.2832031c-.0668945.9306641-.1665039,1.8955078-.2998047,2.8271484h4.3911133c.0332031-.8984375.0332031-1.8300781.0332031-2.8271484h-4.1245117Zm9.8125,0h-3.8916016v2.8271484h3.8916016v-2.8271484Zm5.15625-12.4746094c-.9980469,0-3.8251953,0-5.3222656.2666016h-.0332031c-.3662109,0-1.230957-.9980469-1.230957-1.5634766,1.8959961.3652344,5.621582.4658203,6.652832.4658203h1.7631836c.0996094,0,.2993164-.1337891.3989258-.2998047.2661133-.4326172,1.2641602-1.7958984,1.7631836-1.7958984.5986328,0,2.2617188,1.5634766,2.6279297,2.1953125.0664062.0664062.0996094.1992188.0996094.2988281,0,.2001953-.1665039.4326172-.6650391.4326172h-6.0541992Zm-2.7944336,20.8564453c4.3579102-1.6962891,4.9233398-2.4941406,5.355957-3.2597656.0664062-.0996094.0996094-.1328125.1328125-.1328125s.0996094.0332031.199707.1328125c.3657227.2998047,1.8295898,1.9628906,1.8295898,2.4951172,0,.1992188-.1665039.3330078-.4658203.3330078-.1665039,0-.3662109-.0341797-.6318359-.1337891-.199707-.0664062-.2998047-.1328125-.4658203-.1328125-.0664062,0-.1333008,0-.2329102.0332031-.7983398.2333984-3.9584961,1.03125-5.7548828,1.3310547v1.0644531c0,1.6298828.0332031,1.8291016,3.8588867,1.8291016,3.559082,0,4.6567383,0,5.9541016-4.9228516.0332031-.1669922.0664062-.2333984.0996094-.2333984.1665039,0-.0664062,3.5595703.5322266,3.8925781.3994141.2324219.5991211.5322266.5991211.8310547,0,.8320312-1.4306641,1.6962891-4.1914062,1.8632812-1.0976562.0664062-2.4946289.0996094-3.5922852.0996094-2.4951172,0-5.0229492-.2998047-5.0229492-2.1953125v-.1328125c.0332031-.6328125.0664062-2.2294922.0664062-3.1601562v-.4990234c0-1.5634766-.0664062-2.4287109-.2329102-3.09375-.0332031-.0996094-.0332031-.1660156-.0332031-.2001953,0-.0996094.0332031-.0996094.1660156-.0996094.3994141,0,3.293457.3330078,3.293457,1.03125,0,.1669922-.2661133.3662109-.7651367.5986328-.4990234.2001953-.5654297.2998047-.5986328,1.03125l-.1000977,1.6298828Zm-.5654297-8.3818359v2.8271484h4.4243164c0-.9980469,0-2.0292969-.0332031-2.4619141,0-.0996094-.0332031-.3652344-.3994141-.3652344h-3.9916992Zm2.9272461-6.4541016c-.4321289-.5986328-1.3305664-1.2304688-2.0957031-1.6298828-.1992188-.1328125-.3325195-.1660156-.3325195-.1992188,0-.0996094,1.03125-.2998047,1.7963867-.2998047,1.862793,0,2.527832.9316406,2.527832,1.6972656,0,.5654297-.3657227,1.0644531-.8979492,1.0644531-.2993164,0-.6650391-.1669922-.9980469-.6328125Z"/>
          <path class="cls-2" d="m484.8429572,12.3630634c0,6.9521484-5.4887695,13.7382812-8.1831055,13.7382812-1.5966797,0-2.262207-2.1289062-3.5258789-3.9580078-.4990234-.6992188-.7319336-1.6972656-.7319336-2.828125,0-5.3554688,4.6899414-12.2080078,12.5405273-12.2080078,7.1518555,0,10.8774414,4.9902344,10.8774414,10.0791016,0,7.5849609-7.2851562,11.4101562-12.9731445,11.4101562-.6318359,0-.9648438-.0996094-.9648438-.2333984,0-.1660156.4658203-.3652344,1.2973633-.5654297,9.9462891-2.1953125,10.378418-9.1474609,10.378418-10.8769531,0-4.5244141-3.0932617-8.6826172-8.9145508-8.7158203-.3325195,0-.6987305,0-1.03125.0332031.7983398.5322266,1.230957,2.1289062,1.230957,4.125Zm-1.3310547-1.0976562c0-2.2285156-.5322266-2.7939453-1.2304688-2.7939453h-.0664062c-4.8232422,1.2304688-7.9833984,5.9541016-7.9833984,10.0791016,0,2.328125,1.2304688,4.8564453,2.5942383,4.8564453,1.9296875,0,6.6860352-6.4199219,6.6860352-12.1416016Z"/>
          <path class="cls-2" d="m526.6066291,21.7107196c.0332031.0332031.0332031.0996094.0332031.1328125,0,.1660156-.1660156.3330078-.5322266.4990234-.5654297.2324219-.4990234.0664062-.6982422.7646484-.2661133,1.03125-.6987305,1.9628906-1.230957,2.7949219,4.0913086.9980469,6.4199219,2.5947266,6.4199219,4.0576172,0,.5654297-.3657227.9648438-.8979492.9648438-.3994141,0-.9316406-.2324219-1.4970703-.8310547-1.1308594-1.1982422-2.7939453-2.2626953-4.8232422-3.09375-2.527832,2.7939453-6.8525391,4.0244141-12.2412109,4.0244141-.4326172,0-.831543-.0332031-1.2641602-.0332031-.2661133.3662109-.6982422.5654297-1.1308594.5654297-.4990234,0-.9643555-.3320312-.9643555-1.0644531v-.0996094c.1660156-3.7255859.2993164-9.6796875.3325195-14.9023438-2.4614258,4.2910156-6.652832,6.5195312-7.2182617,6.5195312-.0332031,0-.0668945,0-.0668945-.0664062s.1333008-.2324219.4658203-.5322266c3.925293-3.3261719,6.6196289-8.5488281,6.8525391-9.4804688v-1.296875c-1.1645508,0-2.2954102.0332031-4.125.2998047-.3989258.0332031-1.3305664-1.2646484-1.3305664-1.6308594,2.2290039.3662109,4.125.4658203,5.4555664.4658203,0-1.1640625-.0332031-2.2285156-.0332031-3.0595703-.0332031-.8652344,0-3.3935547-.2993164-4.9902344-.0332031-.0996094-.0332031-.1660156-.0332031-.2324219,0-.0996094.0332031-.1328125.1328125-.1328125.199707,0,3.3930664.4648438,3.3930664,1.2304688,0,.1992188-.199707.3994141-.5654297.5986328-.5322266.265625-.7319336.1992188-.7983398,1.2636719-.0668945,1.0976562-.1000977,3.0273438-.1000977,5.3222656h.3662109c.0996094,0,.2993164-.0996094.3989258-.265625.9980469-1.5302734,1.0644531-1.6630859,1.3305664-1.6630859.0664062,0,.1333008.0332031.199707.0332031.6982422.3320312,1.5966797,1.3300781,2.0292969,2.0957031.0332031.0332031.0332031.1328125.0332031.1992188,0,.2333984-.1000977.4658203-.5991211.4658203h-3.7587891v3.5927734c2.0292969.1328125,3.7587891,1.0976562,3.7587891,2.4277344,0,.6318359-.3989258,1.1308594-.8979492,1.1308594-.3657227,0-.7651367-.2324219-1.0976562-.7978516-.4658203-.7314453-1.0976562-1.5302734-1.7631836-2.0957031.0332031,5.2558594.1000977,11.1767578.2661133,15.3681641,0,.0996094,0,.1992188-.0332031.2988281,5.255836-.3984375,9.347168-1.5292969,11.6425781-4.1572266-.9648438-.2666016-1.9628906-.4990234-3.0273438-.6660156l-.4985352,1.1308594c-.2661133.5322266-.8984375.7988281-1.4306641.7988281-.465332,0-.7983398-.1660156-.7983398-.5654297,0-.1328125.0332031-.3330078.1665039-.5322266,1.1308594-2.0292969,1.7294922-3.4267578,2.2285156-4.8564453-1.6630859.0332031-3.6254883.0996094-5.7211914.2988281h-.0332031c-.5991211,0-1.4306641-1.2304688-1.4306641-1.5966797,2.5615234.2998047,5.4887695.4326172,7.4511719.4658203l.1000977-.2988281c.3325195-1.0644531.6318359-2.0625.6650391-3.1269531-.9643555.0332031-2.0288086.0996094-3.5258789.1992188h-.0332031c-.5654297,0-1.5966797-1.2304688-1.5966797-1.6298828,2.7275391.2998047,4.590332.4326172,6.3867188.4658203.0332031-.8984375.0332031-1.8964844.0332031-2.9277344-2.4282227.0341797-4.125.1337891-7.4511719.3330078h-.0332031c-.5654297,0-1.5302734-1.296875-1.5302734-1.6962891,3.8583984.3662109,6.453125.4990234,9.0146484.4990234v-2.4951172c-1.3637695.0332031-3.0273438.0664062-4.5239258.2333984h-.0332031c-.5654297,0-1.4970703-1.1318359-1.4970703-1.5302734,1.8959961.2324219,4.2578125.3320312,6.0541992.3652344,0-.9638672,0-1.8623047-.0332031-2.6611328-1.6298828,0-4.1582031.1005859-6.6196289.3662109h-.0332031c-.5654297,0-1.4970703-1.3300781-1.4970703-1.7294922,2.894043.3994141,6.3535156.5322266,8.1499023.5322266v-.2998047c0-1.4296875-.1000977-3.0263672-.3330078-3.9912109,0-.0664062-.0332031-.0996094-.0332031-.1328125,0-.1005859.0668945-.1337891.1665039-.1337891.2329102,0,3.4926758.4326172,3.4926758,1.1982422,0,.1992188-.1660156.4316406-.4326172.6318359-.6650391.4326172-.8979492.1660156-.9643555,1.4970703,0,.3652344-.0332031.7978516-.0332031,1.2304688h4.390625c.199707,0,.3662109-.1328125.4990234-.2998047.2993164-.4658203,1.3305664-1.9619141,1.6967773-1.9619141.7646484,0,2.6943359,2.1621094,2.6943359,2.6611328,0,.2324219-.1665039.4316406-.6655273.4316406h-8.6484375c0,.8320312-.0336914,1.7636719-.0336914,2.6943359h3.2602539c.1660156,0,.2993164-.0332031.3989258-.1992188.6987305-.8984375.6987305-.9316406.9316406-.9316406.0996094,0,2.3618164,1.1308594,2.3618164,1.9628906,0,.3662109-.3994141.5654297-.7319336.7988281-.4326172.265625-.4990234.3984375-.5322266,1.1640625-.0332031.1328125-.0332031.3984375-.0332031.5986328h1.4633789c.1000977,0,.3325195-.0996094.4326172-.2666016.3989258-.8974609,1.4301758-1.9619141,1.6630859-1.9619141.1000977,0,.1665039.0332031.2661133.0664062.6987305.4326172,1.7963867,1.4296875,2.262207,2.2617188.0664062.0664062.0996094.1992188.0996094.2998047,0,.2324219-.1665039.4648438-.7319336.4648438h-5.4550781l.2329102,4.0253906c.0332031.5986328-.3662109,1.1640625-1.1645508,1.1640625-.4321289,0-.831543-.265625-.831543-.8642578v-.5322266h-2.9936523c-.9316406,0-1.6962891,0-2.3950195.0332031,1.3637695.3320312,1.496582.4990234,1.496582.6650391s-.1660156.2988281-.5322266.3662109c-.6650391.0664062-.5986328.4316406-.9311523,1.2636719-.1665039.3994141-.3325195.7978516-.4658203,1.1972656h8.2163086c.0996094,0,.3325195-.0996094.4326172-.265625,1.1640625-1.9296875,1.2304688-1.9296875,1.5302734-1.9296875.0996094,0,.1660156.0332031.2324219.0332031,1.0644531.3994141,2.5947266,1.9960938,2.5947266,2.5283203,0,.2324219-.1660156.4658203-.7319336.4658203h-6.1538086Zm-6.4199219,0c-.3989258,1.0976562-.831543,2.2949219-1.2973633,3.4921875,1.1977539.0332031,2.3618164.1337891,3.4594727.3330078.7983398-1.1972656,1.2641602-2.6943359,1.2641602-3.8251953h-3.4262695Zm2.2285156-11.5429688v2.5283203h3.9584961c0-.9316406-.0332031-1.8300781-.0332031-2.1621094,0-.1328125-.0996094-.3662109-.3657227-.3662109h-3.5595703Zm0,3.3925781c0,1.0644531.0336914,2.0625.0336914,2.9609375h3.8916016c.0332031-.8984375.0332031-1.8964844.0332031-2.9609375h-3.9584961Z"/>
          <path class="cls-2" d="m556.9581916,31.4236102c-.0996094,0-.1992188-.0664062-.2324219-.1328125-1.6630859-3.0273438-6.9858398-11.2431641-9.4472656-14.6035156-.0664062-.0996094-.1333008-.2988281-.1333008-.4658203,0-.1992188.0668945-.3652344.1333008-.4648438,2.4614258-3.3603516,7.7841797-11.5761719,9.4472656-14.6035156.0332031-.0664062.1328125-.1328125.2324219-.1328125.2998047,0,.9980469.5322266,1.03125.5654297.0332031.0664062.0664062.1328125.0664062.1992188,0,.2001953-8.4155273,12.9404297-9.0810547,13.9716797-.0996094.1660156-.1328125.2988281-.1328125.4648438,0,.1337891.0332031.2998047.1328125.4658203.6655273,1.03125,9.0810547,13.7714844,9.0810547,13.9716797,0,.0664062-.0332031.1328125-.0664062.1992188-.0332031.0332031-.7314453.5654297-1.03125.5654297Z"/>
          <path class="cls-2" d="m577.8361213,23.872829c-.0996094,1.2636719-.9980469,3.9912109-1.0976562,4.7900391-.1005859.5654297-.2666016.8310547-1.1982422.8310547h-.3320312c-.4326172,0-2.4287109-.0332031-4.6572266-.0332031-3.1269531,0-6.7861328.0332031-7.21875.0664062h-.1328125c-.4658203,0-.8310547-.265625-.8310547-.4980469,0-.0673828.0664062-.1669922.2324219-.2333984,1.8291016-.5986328,9.1142578-8.78125,10.578125-11.6425781,3.0273438-6.0205078.5322266-9.6796875-2.8603516-9.6796875-2.2294922,0-4.4580078,1.6962891-4.4580078,5.2558594,0,.2324219.0332031.4326172.0332031.6650391,0,.1660156-.0996094.2666016-.2324219.2666016-.0664062,0-.1669922-.0664062-.2001953-.1669922-.4980469-2.0625-1.6298828-1.8623047-1.6298828-2.5273438,0-.8984375,2.1962891-4.8232422,7.21875-4.8232422,3.7255859,0,6.453125,2.2949219,6.453125,5.6875,0,3.1933594-1.5966797,5.7548828-10.6445312,15.0693359-.0996094.0996094-.1328125.1660156-.1328125.2324219,0,.1660156.1992188.3330078,3.09375.3330078,5.7880859,0,6.8183594-1.4638672,7.6835938-3.6591797.0332031-.0996094.0996094-.1669922.1660156-.1669922.0673828,0,.1669922.1005859.1669922.2001953v.0332031Z"/>
          <path class="cls-2" d="m589.1173713,26.7663837c0-1.0976562-1.5302734-2.0292969-3.8916016-3.1933594-1.5966797-.7978516-2.4619141-1.9619141-2.4619141-3.4589844,0-1.8632812,1.4638672-3.3603516,4.2578125-3.3603516h.0996094c.8652344,0,2.3623047.4326172,2.7949219.4326172.3984375.0332031.4658203.1669922.4658203.3662109v.0996094c-.0341797.2001953-.0341797.3662109-.0341797.5654297,0,.3994141.0341797.765625.0341797,1.1640625,0,.5654297-.1005859.6660156-.2001953.6660156-.0664062,0-.1328125-.0664062-.1328125-.2333984,0-.3320312-.6318359-2.1621094-3.1933594-2.1621094-1.7294922,0-2.3613281.8984375-2.3955078,1.796875,0,1.4296875,1.3974609,1.8623047,2.3623047,2.2949219l1.296875.5654297c1.8632812.8652344,2.9277344,1.9960938,2.9277344,3.7255859,0,2.1289062-1.7294922,3.8583984-5.1230469,3.8583984-2.2285156,0-3.3925781-.8984375-3.5927734-1.0976562-.1992188-.1660156-.2324219-.3994141-.2324219-.6318359.0664062-.5986328.1992188-1.3642578.1992188-1.9960938,0-.1328125.0673828-.1660156.1337891-.1660156.0996094,0,.1992188.0664062.1992188.1992188s0,.4990234.0664062.6992188c.1992188.9970703,1.3974609,2.0947266,3.3261719,2.0947266,1.4306641,0,3.09375-.6318359,3.09375-2.1953125v-.0332031Z"/>
          <path class="cls-2" d="m599.4406135,29.8601337c-1.6962891,0-3.1601562-1.0644531-3.359375-2.8603516-.0332031-.3662109-.0664062-.8320312-.0664062-1.3642578,0-1.7626953.1660156-4.2578125.1660156-6.2539062,0-1.0976562-.2666016-1.2304688-1.0644531-1.2304688-.4990234,0-.6650391,0-.6650391-.5654297,0-.1992188.0664062-.3994141.1660156-.3994141,2.0292969-.1660156,3.3261719-2.9931641,3.7919922-3.6591797.0664062-.0996094.1328125-.1328125.2001953-.1328125.0996094,0,.1992188.1328125.1992188.2666016-.0664062.6650391-.1660156,2.0957031-.1992188,3.0263672v.1337891c0,.1992188.0664062.3320312.3984375.3320312,1.0976562,0,2.3623047,0,3.2265625-.0664062.1669922-.0332031.2666016.2998047.2666016.6318359,0,.3330078-.0996094.6318359-.2998047.6318359-.8310547-.0664062-2.0957031-.0664062-3.1933594-.0664062-.4658203,0-.4990234.2001953-.5322266.6328125-.0664062,2.1621094-.1328125,4.9892578-.1328125,6.6523438,0,1.296875,0,3.0605469,2.1953125,3.0605469.8320312,0,1.6630859-.3330078,2.1953125-.8652344.0664062-.0664062.1005859-.0664062.1669922-.0664062.0996094,0,.1992188.0664062.1992188.1660156,0,.2001953-1.4306641,1.9960938-3.6591797,1.9960938Z"/>
          <path class="cls-2" d="m610.8761604,30.8581805c.1992188-.3994141.2666016-.6982422.2666016-.9980469,0-1.3300781-3.3603516-9.9794922-3.4931641-10.2451172-.4990234-.9316406-.9648438-2.0292969-1.8964844-2.1289062-.1992188-.0332031-.3320312-.1660156-.3320312-.2666016,0-.0664062.0664062-.1328125.2324219-.1328125h.0996094c.3994141.0664062,1.3974609.0996094,2.6279297.0996094.7988281,0,1.7304688,0,2.6611328-.0664062.1669922,0,.2333984.0996094.2333984.2001953,0,.0664062-.0664062.1660156-.2001953.1660156-.7314453.0664062-1.0976562.6318359-1.0976562,1.3300781,0,.9316406,2.4951172,7.8837891,2.7617188,7.8837891.0664062,0,.1328125-.0996094.2324219-.2988281,2.6279297-5.921875,2.9941406-7.21875,2.9941406-8.5488281,0-.1669922,0-.2666016-.0332031-.3330078v-.0996094c0-.1669922.0664062-.2998047.265625-.2998047.4658203.0332031,1.1308594.0664062,1.7958984.0664062.5664062,0,1.1318359-.0332031,1.5966797-.0664062.1669922,0,.2333984.0996094.2333984.1660156,0,.1005859-.0664062.2001953-.2333984.2001953-1.2304688.0664062-1.8623047,1.1308594-2.8271484,3.0273438-1.8291016,3.5917969-4.0917969,8.9140625-6.1201172,12.90625-1.2314453,2.3945312-2.6611328,4.7900391-5.5224609,5.2558594-.3652344,0-.4326172-.1005859-.4326172-.2001953,0-.0664062.0341797-.1328125.1005859-.265625.265625-.5322266.8642578-1.3642578.9980469-1.8632812.0996094-.2988281.3320312-.265625.7314453-.2988281,1.4970703-.0996094,2.4619141-1.7304688,3.2597656-3.1269531l1.0976562-2.0625Z"/>
          <path class="cls-2" d="m621.901551,29.5271259c-.1669922,0-.2666016-.0996094-.2666016-.1992188,0-.0664062.0664062-.1328125.2001953-.1660156,1.6630859-.3330078,1.8955078-.8320312,1.8955078-2.1289062.0664062-2.8945312.1660156-8.2832031.1660156-12.8066406,0-2.9277344-.0332031-5.4892578-.1660156-6.8193359-.0664062-1.1640625-.7646484-1.3974609-1.7626953-1.4638672-.1328125,0-.2001953-.0996094-.2001953-.1992188s.0673828-.2333984.1669922-.2333984c1.1308594-.1328125,3.0605469-.6650391,4.1914062-1.3300781.0664062-.0664062.1328125-.0664062.1992188-.0664062.0996094,0,.1328125.0664062.1328125.1992188v.0664062l-.1992188,2.4287109c-.2666016,5.1894531-.2666016,15.3017578-.2666016,20.2578125,0,1.1308594.1669922,1.9960938,1.5634766,2.0957031.1337891,0,.2001953.0664062.2001953.1660156s-.0664062.1992188-.2333984.1992188c-1.0644531-.0664062-1.8955078-.1992188-3.0263672-.1992188-.6992188,0-1.5302734.0664062-2.5615234.1992188h-.0332031Z"/>
          <path class="cls-2" d="m636.6798713,29.8601337c-3.9248047,0-5.8544922-2.9267578-5.8544922-6.0537109,0-3.9921875,2.7607422-7.0859375,6.2539062-7.0859375,1.6962891,0,3.1933594.7324219,3.8583984,1.9296875.1992188.3330078.2998047.2324219.4326172.4326172.0664062.0664062.0996094.1992188.0996094.2988281,0,.2666016-.2324219.5996094-.7314453.6992188-.8652344.1992188-5.1230469,1.9951172-7.1523438,2.7939453-.2988281.0996094-.3984375.1992188-.3984375.4658203,0,.8642578.4316406,5.15625,4.6230469,5.15625,1.2978516,0,2.6943359-.4990234,3.6591797-1.6972656.0996094-.0996094.2001953-.1660156.2333984-.1660156.0664062,0,.1328125.0664062.1328125.1660156,0,.4326172-1.7294922,3.0605469-5.15625,3.0605469Zm.0332031-12.1748047c-1.5302734,0-3.359375,1.1640625-3.5253906,3.9257812,0,.1992188.0664062.2988281.1660156.2988281.0332031,0,.1328125-.0332031.1992188-.0664062,4.5576172-1.8964844,5.2558594-2.1953125,5.2558594-2.6611328,0-.0996094-.1328125-1.4970703-2.0957031-1.4970703Z"/>
          <path class="cls-2" d="m646.0558479,31.4236102c-.2998047,0-.9980469-.5322266-1.03125-.5654297-.0332031-.0664062-.0664062-.1328125-.0664062-.1992188,0-.2001953,8.4160156-12.9404297,9.0810547-13.9716797.0996094-.1660156.1660156-.3320312.1660156-.4658203,0-.1660156-.0664062-.2988281-.1660156-.4648438-.6650391-1.03125-9.0810547-13.7714844-9.0810547-13.9716797,0-.0664062.0332031-.1328125.0664062-.1992188.0332031-.0332031.7314453-.5654297,1.03125-.5654297.0996094,0,.1992188.0664062.2324219.1328125,1.6630859,3.0273438,6.9853516,11.2431641,9.4472656,14.6035156.0996094.0996094.1328125.265625.1328125.4648438,0,.1669922-.0332031.3662109-.1328125.4658203-2.4619141,3.3603516-7.7841797,11.5761719-9.4472656,14.6035156-.0332031.0664062-.1328125.1328125-.2324219.1328125Z"/>
          <path class="cls-2" d="m673.9718635,9.2029071c-1.3300781,0-1.9960938.0332031-4.0917969.2998047h-.0332031c-.4316406,0-1.3964844-1.2304688-1.3964844-1.6298828,2.5283203.3994141,4.1914062.4658203,5.5878906.4658203h1.7636719c.0664062,0,.265625-.1005859.3652344-.2666016.9648438-1.6630859,1.1640625-1.7626953,1.3642578-1.7626953.0664062,0,.1328125.0332031.1992188.0332031.5322266.265625,2.3623047,1.7626953,2.3623047,2.5283203,0,.1660156-.1337891.3320312-.5986328.3320312h-5.5224609Zm1.9296875,17.7636719h-3.0605469l.0664062,2.9267578c0,.6318359-.6650391,1.03125-1.1972656,1.03125-.4658203,0-.8320312-.265625-.8320312-.7978516v-.1337891c.2001953-2.4609375.2333984-3.9580078.2333984-6.2529297,0-.4326172-.1669922-3.1269531-.3994141-4.3251953,0-.0996094-.0332031-.1328125-.0332031-.1992188s.0332031-.0664062.0664062-.0664062c.2333984,0,2.1621094.7978516,2.8935547,1.3642578h1.5976562c.1660156,0,.3320312-.0673828.4316406-.2666016.2666016-.4326172.7324219-.8984375.8984375-.8984375.265625,0,2.4287109,1.0976562,2.4287109,1.8964844,0,.3330078-.3662109.5654297-.6660156.7646484-.4658203.3330078-.5654297.5654297-.5654297,1.4306641v.6982422c0,1.1650391.0996094,2.1621094.2001953,3.5595703v.0996094c0,.6650391-.5986328,1.0644531-1.1650391,1.0644531-.4648438,0-.8974609-.265625-.8974609-.9316406v-.9638672Zm-1.6962891-22.3867188c-.3330078,0-1.4638672.1660156-2.0957031.2988281h-.0332031c-.4658203,0-1.2978516-1.0976562-1.2978516-1.5966797,1.1308594.2001953,2.7275391.4658203,3.0605469.4658203h.6318359c.0664062,0,.2666016-.0996094.3662109-.265625.2988281-.5996094.7978516-1.2314453,1.03125-1.5302734.0664062-.0664062.1660156-.1005859.265625-.1005859.0664062,0,.1328125.0341797.1669922.0341797.9638672.4316406,2.1621094,1.6298828,2.1621094,2.2617188,0,.2324219-.1337891.4326172-.5996094.4326172h-3.6582031Zm-.2001953,8.515625c-.2988281,0-1.1972656.1992188-1.8291016.265625h-.0332031c-.4326172,0-1.2978516-.9980469-1.2978516-1.5634766,1.2646484.2666016,2.9277344.4658203,3.2265625.4658203h.4658203c.0664062,0,.2666016-.0996094.3330078-.265625.265625-.5322266.9316406-1.5302734,1.2636719-1.5302734.0664062,0,.1328125.0332031.1669922.0332031.7646484.3652344,2.0283203,1.5302734,2.0283203,2.1621094,0,.2324219-.1328125.4326172-.5986328.4326172h-3.7255859Zm.1669922,4.1240234c-.3330078,0-.6992188.0664062-1.9628906.2666016h-.0332031c-.4326172,0-1.2978516-1.0976562-1.2978516-1.5966797,1.9628906.3994141,3.0605469.4990234,3.3603516.4990234h.3320312c.0664062,0,.2666016-.0996094.3330078-.2998047.2988281-.5654297.7978516-1.1308594.9980469-1.3964844.0664062-.0673828.1660156-.1005859.265625-.1005859.0664062,0,.1337891,0,.1669922.0332031.9970703.4658203,2.0283203,1.7636719,2.0283203,2.1630859,0,.1992188-.1328125.4316406-.5986328.4316406h-3.5917969Zm1.7626953,8.8818359c.0332031-.8652344.0332031-1.5634766.0332031-2.2949219,0-.5986328,0-1.2314453-.0664062-1.9960938,0-.0996094-.0332031-.3662109-.2333984-.3662109h-2.1289062l-.2324219.1669922c-.2998047.2324219-.3994141.4316406-.3994141,1.1308594-.0664062,1.1308594-.0664062,2.2285156-.0664062,3.359375h3.09375Zm6.2197266-12.8398438l-.1992188.4990234c-.265625.6982422-.8652344.9980469-1.3632812.9980469-.3994141,0-.6992188-.2001953-.6992188-.5986328,0-.1669922.0332031-.3330078.1328125-.5322266,1.9960938-4.1914062,3.2939453-7.484375,3.2939453-7.8505859,0-.1328125-.1337891-.2001953-.2998047-.2001953h-.4990234c-.5654297,0-.9980469.0341797-1.8623047.2333984h-.0664062c-.4326172,0-1.3642578-1.1308594-1.3642578-1.5966797,1.9960938.4326172,2.6279297.4990234,3.2597656.4990234h.5654297c.1660156,0,.2998047-.1660156.4658203-.3330078.5322266-.6650391.6650391-.6650391.7314453-.6650391.3994141,0,2.2294922,1.296875,2.2294922,1.7958984,0,.3330078-.4326172.4326172-.765625.5986328-.4326172.2001953-.6318359.1669922-.9980469.9648438-.5986328,1.3642578-1.4628906,3.3935547-2.1953125,5.2558594h1.3642578c.1660156,0,.2988281-.1328125.4326172-.2988281.4990234-.5996094.6650391-.6328125.7314453-.6328125.2324219,0,2.2285156,1.1650391,2.2285156,1.8632812,0,.3330078-.3994141.4658203-.6318359.5986328-.2998047.1992188-.5654297.1328125-.6982422.9648438-.5322266,3.3261719-1.4306641,6.2871094-2.6611328,8.7480469,2.4941406,4.3242188,6.2529297,4.3574219,9.2802734,4.3574219,2.5283203,0,5.1230469-.3652344,8.1494141-1.3632812.1669922-.0664062.2666016-.0664062.3662109-.0664062.0332031,0,.0664062,0,.0664062.0332031,0,.3662109-2.3613281,2.0625-2.7939453,2.9599609-.2666016.3994141-.5654297.6328125-4.1582031.6328125-5.9541016,0-9.3798828-1.0976562-11.5429688-5.4228516-2.9931641,4.9570312-6.9853516,6.3867188-7.4511719,6.3867188-.0664062,0-.0996094-.0332031-.0996094-.0664062,0-.1328125.2666016-.3984375.8652344-.7646484,2.4951172-1.5966797,4.4902344-3.9257812,5.9541016-7.2851562-.6318359-1.8623047-.8652344-3.7587891-.8652344-5.3554688v-.5986328c-.3984375.8320312-1.03125,2.0625-1.0976562,2.4619141-.0332031.265625,0,.6982422-.2988281.6982422-.4658203,0-1.7294922-1.1972656-1.7294922-1.2304688s.0332031-.0673828.1660156-.2001953c1.4970703-1.2636719,2.5283203-2.328125,2.5283203-2.9931641,0-.4658203.3320312-.6992188.6650391-.6992188.3662109,0,.6982422.2333984.6982422.6992188,0,.1992188-.0996094.4316406-.2324219.5654297-.0664062.0332031-.0996094.0996094-.1328125.1660156v.5654297c0,1.5634766.2324219,3.1933594.7978516,4.6904297,1.2636719-3.4599609,1.8291016-7.6845703,1.8291016-8.1835938,0-.1992188-.1660156-.2988281-.3320312-.2988281h-1.7636719Zm9.8466797,10.2783203c-1.3310547,0-3.6923828.0332031-5.7880859.2998047-.3994141.0332031-1.3964844-1.2314453-1.3964844-1.6298828.9970703.1660156,2.0947266.265625,3.1591797.3320312.0341797-1.6630859.0673828-3.1933594.0673828-4.4902344,0-1.2978516-.0332031-2.3623047-.0673828-3.09375,0-.8984375-.0664062-2.5283203-.2988281-3.359375-.0332031-.0664062-.0332031-.1328125-.0332031-.1669922,0-.0664062.0332031-.0664062.0996094-.0664062.5654297,0,3.2265625.4326172,3.2265625,1.0644531,0,.1669922-.1660156.3330078-.4658203.4990234-.6318359.3330078-.6982422.1337891-.7646484,1.1308594-.0664062.9648438-.0996094,2.6611328-.0996094,4.6904297,0,1.1972656.0332031,2.5283203.0332031,3.8925781.7978516.0332031,1.4960938.0332031,2.0283203.0332031.0332031-3.4599609.0673828-6.7197266.0673828-9.1484375,0-3.0927734-.0341797-5.5546875-.2001953-6.6191406-1.8291016.3330078-3.7919922.5986328-5.15625.6318359-.4648438,0-.7314453-.0664062-.7314453-.1660156s.2333984-.2333984.6982422-.2998047c2.828125-.4326172,7.8173828-2.0625,9.1152344-3.5253906.0996094-.1337891.0996094-.2001953.1660156-.2001953.3320312,0,2.1953125,1.8300781,2.1953125,2.1289062,0,.2001953-.2324219.3662109-.5986328.3662109-.0996094,0-.2333984-.0332031-.3994141-.0664062-.0996094-.0332031-.2324219-.0332031-.3320312-.0332031-.2001953,0-.3662109.0332031-.5332031.0996094-.5654297.2324219-1.4296875.4658203-2.4277344.6982422.8984375.2333984,1.1308594.2998047,1.1308594.5986328,0,.2001953-.1660156.3994141-.3994141.4990234q-.8642578.3994141-.8642578,5.7548828h.7978516c.0996094,0,.2666016-.0664062.3994141-.2324219.0332031-.0332031.9648438-1.5966797,1.3300781-1.5966797.0673828,0,.1337891.0332031.1669922.0332031.7978516.3994141,2.2617188,1.5634766,2.2617188,2.2285156,0,.2324219-.1328125.4326172-.5986328.4326172h-4.3574219c0,2.4609375,0,5.2558594.0332031,8.4160156h1.5302734c.0996094,0,.2988281-.1005859.3652344-.2666016.3330078-.5654297.9316406-1.4638672,1.2314453-1.7626953.0996094-.0664062.1660156-.0996094.265625-.0996094.0664062,0,.0996094.0332031.1328125.0332031.8984375.4658203,2.2626953,2.1289062,2.2626953,2.5273438,0,.2001953-.1337891.4326172-.5654297.4326172h-6.6865234Z"/>
          <path class="cls-2" d="m716.5675666,29.0954852c-1.8623047,0-6.8857422.0664062-9.9121094.3652344h-.0332031c-.6328125,0-1.5634766-1.296875-1.5634766-1.7294922v-.0332031c3.4589844.4326172,9.7460938.5322266,11.6757812.5322266h2.0615234l.0673828-7.5839844h-.8320312c-1.6962891,0-3.9248047.0664062-6.6865234.3652344h-.0332031c-.5654297,0-1.4960938-1.3300781-1.4960938-1.7294922,3.1259766.3994141,6.6191406.5322266,8.3818359.5322266h.6660156v-6.6523438h-6.7197266c-3.359375,5.2226562-6.2207031,7.2177734-6.6201172,7.2177734h-.0332031c0-.0996094.1337891-.2988281.4990234-.6650391,2.3623047-2.4951172,5.15625-7.9501953,6.4873047-12.0419922.265625-.7978516.3984375-1.8955078.4648438-2.59375.0332031-.2001953-.0332031-.2998047.1005859-.2998047.3652344,0,3.7587891,1.1640625,3.7587891,1.8623047,0,.2666016-.2666016.4990234-1.0976562.6660156-.5322266.0996094-.5996094.2988281-.9316406.9980469-.5654297,1.296875-1.2978516,2.6611328-2.1289062,4.0244141h6.2207031c-.1337891-7.9169922-.1669922-8.2822266-.4658203-9.9121094-.0332031-.1005859-.0332031-.2001953-.0332031-.2333984,0-.0664062.0332031-.0996094.0996094-.0996094.4326172,0,4.0908203.3994141,4.0908203,1.296875,0,.2333984-.1992188.4658203-.53125.6992188-.765625.4990234-.9316406.1328125-.9980469,1.6962891-.0664062,1.3300781-.0664062,3.7587891-.1005859,6.5527344h4.9902344c.1992188,0,.4326172-.1328125.5322266-.2988281,1.4296875-1.9628906,1.6298828-2.2294922,1.9287109-2.2294922.1005859,0,.2001953.0332031.3330078.0673828.8320312.3320312,2.2285156,1.7294922,2.7275391,2.5273438.0332031.0996094.0996094.2001953.0996094.3330078,0,.2324219-.1660156.4326172-.7314453.4326172h-9.8798828v6.6523438h3.2607422c.1992188,0,.3984375-.1660156.4980469-.2988281.3994141-.4658203,1.1982422-1.6630859,1.5976562-1.9628906.0996094-.0664062.1992188-.0996094.2988281-.0996094.765625,0,2.9941406,2.2285156,2.9941406,2.7607422,0,.1992188-.1669922.4326172-.6992188.4326172h-7.9501953l.0673828,7.5839844h8.0830078c.2324219,0,.4658203-.1328125.5654297-.2998047.3994141-.5986328,1.7294922-2.328125,2.1289062-2.328125.8310547,0,3.2597656,2.5283203,3.2597656,3.0605469,0,.2324219-.1660156.4326172-.7314453.4326172h-17.7304688Z"/>
          <path class="cls-2" d="m736.2941291,16.8874774v-1.2978516h33.2646484v1.2978516h-33.2646484Z"/>
          <path class="cls-2" d="m772.0236213,28.263454c0-2.0625,1.6630859-3.7255859,3.7587891-3.7255859,2.0292969,0,3.6923828,1.6630859,3.6923828,3.7255859,0,2.0957031-1.6630859,3.7587891-3.6923828,3.7587891-2.0957031,0-3.7587891-1.6630859-3.7587891-3.7587891Zm3.7255859-2.6279297c-1.4638672,0-2.6279297,1.1972656-2.6279297,2.6611328,0,1.4306641,1.1640625,2.6279297,2.6279297,2.6279297s2.6611328-1.1972656,2.6611328-2.6279297c0-1.4638672-1.1972656-2.6611328-2.6611328-2.6611328Z"/>
        </g>
      </g>
    </g>
  </g>
</svg>