<?xml version="1.0" encoding="UTF-8"?>
<svg id="_レイヤー_2" data-name="レイヤー 2" xmlns="http://www.w3.org/2000/svg" viewBox="0 0 325 110">
  <defs>
    <style>
      .cls-1, .cls-2, .cls-3 {
        stroke-width: 0px;
      }

      .cls-2 {
        fill: none;
      }

      .cls-3 {
        fill: gray;
      }
    </style>
  </defs>
  <g id="_ヘッダー" data-name="ヘッダー">
    <g>
      <g>
        <path class="cls-1" d="m43.5074538,31.9718342c-4.578432-4.1620628-7.1445036-8.8094373-7.1445036-13.6652678,0-7.8382712,6.5897066-11.3065664,12.2777325-11.3065664h.3468838c2.4276438.0694853,5.2716567.6242823,7.6993006.6242823h.9711661c.3468838,0,.4163691.1384278.4163691.4163691-.0694853.7627101-.1384278,1.4564777-.1384278,2.2197307,0,1.7338762.2079131,3.4682952.2079131,5.2716567,0,1.9423322-.2079131,2.1502453-.554797,2.1502453-.208456,0-.4163691-.2079131-.4163691-.554797,0-3.3988099-2.1502453-7.9077566-8.8094373-7.9077566-4.8558305,0-7.6303581,3.2603821-7.6303581,6.8671051v.1389707c0,4.7168598,2.8440129,7.7687859,7.2139889,11.0986533l3.8846644,3.1908968c5.2716567,4.4394613,8.6704666,8.8094373,8.6704666,14.3584925,0,6.9371333-5.2716567,14.0121516-15.0522602,14.0121516h-.1389707c-3.1214114,0-7.0060758-1.1095939-9.2258065-2.3581585-.9016808-.5553398-1.525963-.6937676-1.525963-2.2197307v-.2773985c.1389707-2.4281867.5553398-5.6190834.6242823-8.2546404,0-.3468838.208456-.4858545.4163691-.4858545.2773985,0,.554797.2079131.554797.4858545,0,9.3642343,6.7286773,10.5433135,9.8500887,10.5433135,7.1450465,0,9.4337196-5.7575112,9.4337196-8.6704666,0-5.2721996-3.3293246-8.393611-7.8382712-12.1393047l-4.0925775-3.5377806Z"/>
        <path class="cls-1" d="m104.640975,38.3395135c0-16.5890803,0-21.3895396-1.3365069-23.8198977-.0607997-.1215993-.1215993-.2431987-.1215993-.3039983,0-.2431987.182399-.3039983.4250548-.3039983h.1215993c.8506525.182399,2.0053033.3039983,3.6458085.3039983,1.2154505,0,2.7348993-.0607997,4.4970039-.2431987h.1215993c.3642551,0,.5466541.182399.5466541.364798,0,.2431987-.2431987.4858545-.5466541.5466541-2.9167554.547197-4.3754045,2.7956989-4.4362042,7.0489613,0,3.3423531-.1215993,10.0265163-.182399,16.6498799v2.4309009c0,14.6440338-11.9096774,17.9863869-17.5005324,17.9863869-6.2585656,0-12.3352751-3.1599541-15.0696315-9.6617183-1.2154505-2.9775551-1.3978495-5.1044577-1.3978495-12.7000731.0607997-3.0383547.0607997-6.2591085.0607997-9.1150642,0-10.3907715-.2426558-11.9096774-4.1924627-12.7608727-.2431987-.0602568-.3039983-.1818561-.3039983-.3642551,0-.2431987.182399-.4863973.4255977-.4863973,1.5189059.1215993,4.314062.3039983,7.3524167.3039983,1.7013049,0,3.4634095-.0607997,5.1044577-.2431987h.182399c.3034555,0,.4858545.1215993.4858545.3039983,0,.3039983-.3039983.6074538-.6074538.6682535-2.4309009.4863973-3.5247521,1.5194488-3.5855517,5.7119115-.0607997,1.8234471-.0607997,10.1481157-.1215993,15.9208268,0,5.7727111.1215993,8.5678672,1.2154505,11.3630233,2.0661029,5.5300553,6.7449629,8.2036121,11.5454223,8.2036121,5.8335108,0,11.8494206-3.9498069,13.3080697-11.3630233.2426558-.9114521.3642551-1.7018478.3642551-6.4415075Z"/>
        <path class="cls-1" d="m162.3626579,23.9381355c-.1215993,0-.2431987.182399-.4255977.5466541-3.5242092,7.4745589-13.0035286,26.0081428-15.3736298,33.3605596-.182399.6079967-.4250548.8506525-.6682535.8506525s-.4863973-.2426558-.6687963-.7898528c-1.5797056-4.4356613-11.059025-20.3564882-16.3458816-33.5424157-.1215993-.364798-.3034555-.6079967-.4250548-.6079967-.0607997,0-.182399.182399-.2431987.547197-.6682535,6.6233636-2.6127571,20.0524898-3.4634095,26.4331976-.1215993.9114521-.2431987,1.8229043-.2431987,2.6735567,0,2.0053033.6074538,3.6458085,3.1594112,4.0106065.3039983,0,.4863973.2426558.4863973.4250548,0,.2431987-.2431987.4255977-.7898528.4255977h-.1215993c-2.4911577-.3039983-3.8890072-.4863973-5.5295125-.4863973-1.2154505,0-2.6132999.1215993-4.7396597.364798h-.2431987c-.364798,0-.4863973-.1215993-.4863973-.2431987,0-.182399.182399-.364798.547197-.4250548,3.2810105-.547197,4.4356613-3.1599541,5.0431151-6.4415075,1.0938511-5.5903121,4.8010022-31.1120576,5.226057-37.4314229.0607997-.547197.1215993-.9114521.3039983-.9114521.1215993,0,.3642551.2426558.6682535.8506525,6.3199081,12.5176741,10.8771688,20.6599436,18.7767825,36.4591711,3.2810105-6.6841633,15.2520305-31.051258,17.5005324-36.3983714.2431987-.547197.4858545-.9114521.6682535-.9114521s.3039983.2426558.364798.8506525c.7290531,7.9604134,3.2810105,23.759098,5.4687128,35.547719,1.3370498,7.2313603,2.7343564,8.0212131,5.5903121,8.3860111.182399,0,.364798.1818561.364798.3642551,0,.2431987-.2431987.4863973-.7290531.4863973h-.1215993c-2.5519574-.2431987-4.3754045-.3039983-5.7119115-.3039983-1.7018478,0-2.6735567.1215993-3.7066082.3039983h-.1215993c-.3039983,0-.4255977-.1215993-.4255977-.3039983,0-.1215993.0607997-.2431987.1215993-.4255977.2431987-.5466541.3039983-1.3973066.3039983-2.4303581,0-1.7621046-.3039983-4.0106065-.547197-5.8943105-.6682535-4.8004593-2.6735567-15.9816265-3.2202109-24.7318927-.0607997-.3642551-.1215993-.6074538-.2431987-.6074538Z"/>
        <path class="cls-1" d="m196.1412152,58.3925462c-1.7621046-.1215993-4.3754045-.4863973-7.5348157-.4863973-1.9445036,0-4.0106065.1215993-6.1983088.4863973h-.0607997c-.2431987,0-.4250548-.182399-.4250548-.364798s.1210565-.3039983.3642551-.364798c3.9498069-.5466541,4.8004593-1.9445036,4.8004593-7.6564151.0607997-4.861259.182399-12.9427289.182399-19.8092912,0-12.9432717-.0607997-14.6445767-4.1930055-15.5560288-.2426558-.0607997-.3034555-.182399-.3034555-.3039983,0-.182399.1818561-.4255977.4250548-.4255977,1.5194488.1215993,4.1930055.3039983,7.1097609.3039983,1.7013049,0,3.4026099-.0607997,5.043658-.2431987h.182399c.3034555,0,.4858545.1215993.4858545.3039983,0,.3039983-.3039983.6074538-.6074538.6682535-2.4309009.4863973-3.3423531,1.5194488-3.4639524,5.7119115-.182399,4.1322059-.2426558,12.6392734-.2426558,19.9314333,0,3.7066082.0602568,7.0489613.0602568,9.4793193,0,4.861259.182399,7.3529596,4.3146049,7.4137593.364798.0602568.6074538.3034555.6074538.5466541,0,.182399-.1818561.364798-.4858545.364798h-.0607997Z"/>
        <path class="cls-1" d="m205.9212757,58.3925462c-.2426558,0-.4250548-.182399-.4250548-.4255977,0-.1215993.1215993-.3039983.3642551-.3039983,3.5247521-.1818561,3.9498069-2.1871594,3.9498069-6.9268191v-1.3370498c-.0607997-3.0991544-.0607997-6.0767095-.0607997-8.9326652,0-6.4409646.0607997-12.1528761.0607997-16.5890803,0-7.0489613-.0607997-8.8718655-4.0100637-9.2361207-.2431987-.0607997-.364798-.2431987-.364798-.364798,0-.182399.1215993-.364798.3039983-.364798,2.3695584.1215993,4.0100637.2431987,5.8335108.2431987,1.5797056,0,3.2810105-.0607997,5.7727111-.2431987h.0607793c.3642755,0,.5466745.182399.5466745.364798,0,.2431987-.182399.4255977-.4858545.4858545-2.7348993.3039983-3.0991544,2.3093016-3.0991544,5.773254,0,6.8665623-.0607997,20.3564882-.182399,28.9243554v2.0661029c0,4.1924627.4250548,5.4687128,4.3748617,6.1369663.2431987.0607997.364798.2431987.364798.364798,0,.182399-.1215993.364798-.4255977.364798-2.1263597,0-3.9498069-.364798-6.9268191-.364798-1.5194488,0-3.3423531.1215993-5.590855.364798h-.0607997Zm36.5205136-44.4201274c.3642551,0,.5466541.182399.5466541.364798s-.2426558.4858545-.7898528.5466541c-5.7119115.6687963-18.1079862,14.0979225-21.9969934,17.8653304-.2431987.2431987-.364798.4863973-.364798.7290531,0,.182399.0607997.364798.2431987.547197,18.1687859,18.3511849,24.1846957,23.3340432,29.1067544,23.576699.2431987,0,.4250548.1215993.4250548.3039983,0,.364798-.1818561.4255977-5.4079131.4255977h-.1215993c-9.7833177,0-13.0035286-6.0159098-28.4993006-23.2732436-.1818561-.3039983-.5466541-.4863973-.5466541-.729596,0-.0607997.0607997-.1818561.2431987-.3034555.6682535-.364798,1.2149076-.6687963,1.8229043-1.2762501,4.314062-4.0714062,14.583777-13.5507255,14.583777-17.4397327,0-.2431987-.0607997-.4863973-.1215993-.6682535v-.1215993c0-.3039983.1215993-.547197.4858545-.547197,2.8564986.0607997,3.9498069.182399,5.590855.182399,1.0938511,0,2.4303581-.0607997,4.7396597-.182399h.0607997Z"/>
        <path class="cls-1" d="m268.3831611,12.5751122c.1818561,0,.3034338.2426558.4858545.8506525,1.6405053,5.8943105,9.0542645,23.8198977,14.3405783,35.6693183,3.1599541,7.2313603,4.1930055,7.8388141,6.7449629,8.4462679.2431987.0607997.4863973.2431987.4863973.4255977s-.2431987.3039983-.7898528.3039983c-3.1599541-.182399-5.1044577-.2431987-6.5023071-.2431987-1.3365069,0-2.1263597.0607997-3.0986115.2431987h-.182399c-.182399,0-.2431987-.0607997-.2431987-.3039983v-.3039983c.1215993-.3642551.1215993-.7898528.1215993-1.2149076,0-2.0661029-.9114521-5.1652573-4.67886-15.0701743-.0607997-.182399-.364798-.3642551-.729596-.3642551-1.6405053.0602568-3.7674079.0602568-5.8335108.0602568-2.8559557,0-5.7119115,0-7.2916171-.0602568-.4255977,0-.6074538.1818561-.6682535.3642551-2.0053033,5.7727111-3.5855517,10.6339701-3.7674079,11.0595678-.2431987.7290531-.4255977,1.5189059-.4255977,2.3087587,0,1.4586491.6074538,2.7348993,2.6735567,2.7951561.3039983,0,.4863973.182399.4863973.3039983,0,.2431987-.2431987.4255977-.729596.4255977-2.3087587-.1215993-3.6458085-.182399-5.2255141-.182399-1.4586491,0-3.0991544.0607997-5.8335108.182399-.4863973,0-.7290531-.1215993-.7290531-.3039983s.3034555-.364798.7898528-.4255977c3.0383547-.1818561,4.9828583-2.7951561,6.1375091-5.4079131.6074538-1.3973066,12.2744754-32.2667084,13.9149807-38.6468734.182399-.547197.364798-.9114521.547197-.9114521Zm-6.4415075,26.0683996c1.5802485-.0607997,3.5855517-.0607997,5.590855-.0607997,2.0047604,0,4.0708633,0,5.7727111.0607997h.1818561c.182399,0,.3039983-.0607997.3039983-.182399,0-.0607997,0-.182399-.0607997-.2431987-5.8335108-15.7986846-6.0767095-16.1634826-6.1977659-16.1634826-.1215993,0-.2431987.182399-.3039983.4858545l-5.5295125,15.7384278v.1215993c0,.1215993.0602568.2431987.1818561.2431987h.0607997Z"/>
      </g>
      <g>
        <g>
          <g>
            <path class="cls-3" d="m108.7713433,105.8872809c-.0528143,0-.0846229-.0318086-.0846229-.0528143,0-.0216058.0210057-.0426115.0636172-.0534144.51824-.0846229.6343714-.3384915.6451744-.7616058.0105028-.5707542.0210057-1.1421086.0210057-1.713463q0-1.0364801-.3489943-1.0364801c-.1797486,0-.22206-.0108029-.22206-.1902514,0-.0528143.0210057-.1164315.0528143-.1164315.4972344-.0426115.5500486-.1800487.5500486-.3492944,0-.0846229.0105028-.1584428.0105028-.2328629,0-.1158313-.0105028-.2538686-.0210057-.4759286v-.2322628c0-2.2848174,1.4490916-2.6659204,2.3376317-2.6659204.7192944,0,.7192944.1272344.7192944.1584428,0,.0318086-.0105028.0744201-.0210057.1380373-.0213058.0846229-.0213058.4543228-.0531144.66618-.0105028.0318086-.0423114.0738199-.07412.0738199-.0210057,0-.0420114-.0210057-.0420114-.0846229-.0108029-.3384915-.3916058-.5605515-.825223-.5605515-.4867315,0-1.0577859.2964801-1.2165288,1.0682887-.0738199.3913057-.1164315.8042173-.1164315,1.491403v.9206488c.0108029.0420114.0426115.0738199.1272344.0738199.3384915,0,.44412,0,.7189943-.0210057.0531144-.0108029.0954258.1056285.0954258.2112571,0,.0954258-.0318086.1908516-.0954258.1908516-.2643714-.0216058-.37-.0216058-.7189943-.0216058-.1377372,0-.1587429.0636172-.1587429.2010543-.0105028.6139659-.0213058,1.2273317-.0213058,1.8406974v.6769829c0,.3594971.1059286.7087915.5713544.7406001.0528143,0,.0846229.0318086.0846229.0636172,0,.0312084-.0213058.0528143-.07412.0528143-.3279886-.0216058-.6451744-.0636172-1.0367802-.0636172-.2538686,0-.5287429.0210057-.8567315.0636172h-.0105028Z"/>
            <path class="cls-3" d="m113.3823894,105.9929094c-1.2483373,0-1.8617031-.9308516-1.8617031-1.9253203,0-1.269343.8777372-2.2530088,1.9883373-2.2530088.5395458,0,1.0154744.2328629,1.2273317.6133658.0633171.1062287.0951257.0744201.1374371.1374371.0210057.0216058.0318086.0636172.0318086.0954258,0,.0846229-.07412.1902514-.2328629.22206-.2748743.0636172-1.6288402.6349716-2.2743146.8888402-.0951257.0318086-.1269343.063017-.1269343.1476399,0,.2754744.1374371,1.6396431,1.4703974,1.6396431.4126115,0,.8567315-.1584428,1.1637145-.5395458.0315085-.0312084.0633171-.0528143.0738199-.0528143.0213058,0,.0423114.0216058.0423114.0528143,0,.1380373-.5500486.9734631-1.639343.9734631Zm.0105028-3.8716463c-.4867315,0-1.0685888.3703001-1.121403,1.2483373,0,.0636172.0213058.0954258.0528143.0954258.0108029,0,.0426115-.0108029.0636172-.0216058,1.4490916-.6025628,1.6714517-.6979886,1.6714517-.8462287,0-.0318086-.0426115-.4759286-.6664801-.4759286Z"/>
            <path class="cls-3" d="m119.2939869,105.8872809c-.381103-.0318086-.5818572-.0318086-.7087915-.0318086-.1800487,0-.2010543.0102028-.29618.0318086-.0318086.0102028-.0531144.0102028-.07412.0102028-.0423114,0-.0636172-.0210057-.0951257-.0846229-.0318086-.0528143-.0423114-.1374371-.0636172-.2430657-.0105028-.0528143-.0210057-.0846229-.0528143-.0846229-.0213058,0-.0423114.0108029-.07412.0318086-.4759286.3174858-.899043.44412-1.2585401.44412-.6769829,0-1.1000973-.44412-1.1000973-.9308516,0-.3913057.2748743-.6877859.6769829-.8672344.4546229-.2010543,1.2798459-.3282887,1.639343-.4657259.1482401-.0528143.1587429-.1056285.1587429-.2538686v-.22206c-.0105028-.6979886-.4126115-1.0256772-.8357258-1.0256772-.4336172,0-.899043.3594971-.973163,1.0364801,0,.0420114-.0318086.0528143-.0528143.0528143-.0318086,0-.0636172-.0210057-.0636172-.0528143-.0210057-.3913057-.1584428-.5605515-.2007543-.7195945,0-.0210057-.0105028-.0420114-.0105028-.063017,0-.1800487.9200486-.6241687,1.5760259-.6241687.1584428,0,.3171857.0210057.4549229.0738199.4018086.1482401.8144201.381103.8144201,1.3539659,0,.3276886-.0213058.8888402-.0213058,1.343163,0,.5395458.0318086,1.1637145.5713544,1.1637145.0528143,0,.07412.0318086.07412.0744201,0,.0210057-.0213058.0528143-.07412.0528143h-.0105028Zm-1.269343-.9416545c0-.2748743,0-.5713544.0105028-.8570316,0-.0738199-.0105028-.1056285-.0531144-.1056285-.0315085,0-.9941687.2646715-1.2903487.3913057-.2010543.0846229-.3489943.2328629-.3489943.5077372,0,.3703001.3171857.6139659.7403001.6139659.2433658,0,.529043-.0846229.7934144-.2754744.1374371-.0846229.1482401-.1266342.1482401-.2748743Z"/>
            <path class="cls-3" d="m121.3447411,105.9929094c-.5395458,0-1.0049716-.3384915-1.0685888-.9098459-.0105028-.1164315-.0210057-.2640714-.0210057-.4333171,0-.5611516.0528143-1.3539659.0528143-1.9889375,0-.3492944-.0846229-.3913057-.3384915-.3913057-.1587429,0-.2115572,0-.2115572-.1800487,0-.063017.0210057-.1266342.0528143-.1266342.6451744-.0528143,1.0577859-.9518572,1.2060259-1.1637145.0210057-.0318086.0423114-.0420114.0633171-.0420114.0318086,0,.0636172.0420114.0636172.0846229-.0213058.2112571-.0528143.66618-.0636172.96206v.0426115c0,.0636172.0213058.1056285.1269343.1056285.3489943,0,.751103,0,1.0259773-.0210057.0531144-.0108029.0846229.0954258.0846229.2010543s-.0315085.2010543-.0951257.2010543c-.2643714-.0216058-.6664801-.0216058-1.0154744-.0216058-.14794,0-.1587429.0636172-.1692457.2010543-.0210057.6877859-.0423114,1.5868288-.0423114,2.1155717,0,.4129116,0,.9734631.6982887.9734631.2643714,0,.5287429-.1056285.6979886-.2748743.0213058-.0216058.0318086-.0216058.0531144-.0216058.0315085,0,.0633171.0216058.0633171.0528143,0,.0636172-.4549229.6349716-1.1634144.6349716Z"/>
            <path class="cls-3" d="m123.2049438,105.3477351c0-.0528143.0213058-.5713544.5500486-.5713544.3597972,0,.5185401.2430657.5185401.5077372,0,.4867315-.3916058.5713544-.5608516.5713544-.3171857,0-.5077372-.2328629-.5077372-.5077372Z"/>
          </g>
          <g>
            <path class="cls-3" d="m173.6818845,105.9292923c-.4987348,0-1.29515-.218459-1.29515-.2976804,0-.025807.0090024-.0438118.0354096-.0786212.218459-.3060827.218459-1.224931.2274615-1.5658231.0084023-.8312246.0438118-1.9337226.0438118-2.8261637,0-.4723276-.0090024-.8834387-.0354096-1.154712-.025807-.2538686-.2010543-.358897-.4633252-.3678994-.0354096,0-.0528143-.0174047-.0528143-.0438118,0-.025807.0174047-.0522141.0528143-.0612165.3234874-.0348094.7874128-.2094566,1.0670884-.3672993.0174047-.0084023.0354096-.0174047.0528143-.0174047.0348094,0,.0522141.0348094.0522141.0786212-.0348094.3060827-.0786212.8138199-.1488402,3.770819,0,.0612165,0,.0966261.0354096.0966261.0084023,0,.0348094-.0090024.0612165-.0354096.6559773-.4987348.7171938-.5335442.8396269-.5335442.3066829,0,1.6012327.2712733,1.6012327,1.5052068,0,.9182481-.7964152,1.898313-2.0735604,1.898313Zm-.4813301-1.2159286c0,.96206.0174047.9710624.4987348.9710624.9098459,0,1.4259854-.7790105,1.4259854-1.4962043,0-.7610057-.5419465-1.1463098-1.0496837-1.1463098-.1572425,0-.866034.0876237-.866034.6739821-.0090024.3672993-.0090024.7171938-.0090024.9974696Z"/>
            <path class="cls-3" d="m177.4947149,106.2005656c.0522141-.1050284.0696188-.1836496.0696188-.2622709,0-.3504947-.8834387-2.6251094-.9182481-2.6947282-.1314355-.2454663-.2538686-.5341443-.4987348-.5599513-.0528143-.0090024-.0876237-.0438118-.0876237-.070219,0-.0174047.0174047-.0348094.0612165-.0348094h.0264071c.1050284.0174047.3672993.025807.6907867.025807.2100568,0,.4555231,0,.7003893-.0174047.0438118,0,.0612165.0264071.0612165.0528143,0,.0174047-.0174047.0438118-.0528143.0438118-.1920519.0174047-.288678.1662449-.288678.3498946,0,.2448662.6565774,2.0735604.7261962,2.0735604.0174047,0,.0354096-.0264071.0612165-.0792214.6913868-1.5568207.7874128-1.898313.7874128-2.2482075,0-.0438118,0-.070219-.0084023-.0876237v-.0264071c0-.0438118.0174047-.0786212.0696188-.0786212.1224331.0090024.2976804.0174047.4729278.0174047.1482401,0,.2970803-.0084023.4195134-.0174047.0438118,0,.0612165.0264071.0612165.0438118,0,.0264071-.0174047.0528143-.0612165.0528143-.3234874.0174047-.4897323.2970803-.7436009.7958151-.4813301.9452554-1.0760908,2.3448337-1.609635,3.3945173-.3240876.6301703-.6997891,1.2603406-1.4523925,1.3827737-.0966261,0-.1140308-.0264071-.1140308-.0528143,0-.0174047.0090024-.0348094.0264071-.0696188.070219-.140438.2274615-.358897.2622709-.4903325.0264071-.0786212.0876237-.0696188.1926521-.0786212.3937064-.0264071.647575-.4549229.8576318-.8222222l.288678-.5425466Z"/>
          </g>
          <g>
            <path class="cls-3" d="m129.1105389,106.0008675c1.4248763,0,2.4996695-1.0488286,2.4996695-2.4404141,0-1.4082352-.9721143-1.9797663-1.9233432-2.3529816l-.5334537-.2076307c-.6457231-.2474041-.9599756-.5594097-.9599756-.9546295,0-.5785732.5836611-.9365507,1.1244411-.9365507.4970551,0,.8234463.1921002,1.0917184.6423311l.0615024.1035313.9436186-.5661763-.0569913-.1015512c-.4299139-.7653358-1.1472892-1.1867957-2.0200992-1.1867957-1.1210578,0-2.3120805.7168158-2.3120805,2.0452116,0,1.117683.8553252,1.636183,1.6925889,1.9966915l.5142644.2175138c.7469988.3103011,1.2096353.6361155,1.2096353,1.3010365,0,.7467061-.5500862,1.3317705-1.2525078,1.3317705-.3749113,0-.7179436-.1385008-.9661913-.3895723-.2335781-.2364018-.3596734-.5562933-.3557219-.9010129l.0016874-.1497958-1.1929942.251347.0143942.1100224c.1675646,1.2677371,1.1850911,2.1876553,2.4198387,2.1876553"/>
            <path class="cls-3" d="m141.4543042,102.0004423c0-2.2060096-1.803455-4.0004251-4.0204582-4.0004251-2.2167277,0-4.0204668,1.7944156-4.0204668,4.0004251,0,2.2432519,1.7662126,4.0004423,4.0204668,4.0004423,2.254521,0,4.0204582-1.7571904,4.0204582-4.0004423m-4.0204582,2.8917815c-1.5727006,0-2.8523008-1.2973691-2.8523008-2.8917815,0-1.6485799,1.226285-2.8917815,2.8523008-2.8917815,1.6260072,0,2.8522922,1.2432016,2.8522922,2.8917815,0,1.5944124-1.2796002,2.8917815-2.8522922,2.8917815Z"/>
            <polyline class="cls-3" points="147.061573 104.7539985 144.8005522 104.7539985 144.8005522 98.1579915 143.6323863 98.1579915 143.6323863 105.8429104 147.061573 105.8429104 147.061573 104.7539985"/>
            <rect class="cls-3" x="149.2709659" y="98.1579743" width="1.16845" height="7.6849189"/>
            <path class="cls-3" d="m154.8511423,98.1579915h-1.6604258v7.6849189h1.630811c2.668646,0,4.3265322-1.4875064,4.3265322-3.8819487,0-2.310109-1.6866573-3.8029702-4.2969174-3.8029702m-.4925354,1.0888947h.2062102c1.5577469,0,3.4148011.4778829,3.4148011,2.7535734,0,2.2759659-1.8570543,2.7535561-3.4148011,2.7535561h-.2062102v-5.5071295Z"/>
            <path class="cls-3" d="m165.1000655,98.0000172c-2.2170118,0-4.0204668,1.7944156-4.0204668,4.0004251,0,2.2432519,1.7659371,4.0004423,4.0204668,4.0004423,2.2542369,0,4.0204495-1.7571904,4.0204495-4.0004423,0-2.2060096-1.8037304-4.0004251-4.0204495-4.0004251m0,6.8922066c-1.5729933,0-2.8525935-1.2973691-2.8525935-2.8917815,0-1.6485799,1.2262936-2.8917815,2.8525935-2.8917815,1.6257145,0,2.8520081,1.2432016,2.8520081,2.8917815,0,1.5944124-1.2793247,2.8917815-2.8520081,2.8917815Z"/>
          </g>
          <g>
            <path class="cls-3" d="m196.8129429,105.8026559h1.5336169l.9022538-2.9502002c.1082973-.351727.086277-.6678643-.0763163-.888979-.1451022-.1978884-.4027089-.3315202-.6995415-.3324224l-6.4898403.0009022-1.2754027,4.1670815,1.5336169.0036179,1.09472-3.5773379h1.5176264l-1.0941032,3.5773379h1.5351267l1.0938086-3.5773379h.702561c.2334782.0005984.410856.0748065.5134181.2132714.1158369.158064.1200532.3867183.0298637.6784233l-.8214082,2.6856432Z"/>
            <path class="cls-3" d="m210.572274,101.6320485h-1.5333224l-.9022538,2.9502094c-.1086011.351727-.0865808.6678643.0763163.8883714.1453968.198496.4030126.3321278.6989339.3327262l6.4907517-.0005984,1.2747952-4.1670815-1.5336169-.0036271-1.09472,3.5773471h-1.5176264l1.0937994-3.5773471h-1.5345191l-1.0938086,3.5773471h-.7028648c-.2328706-.0005984-.410856-.0742082-.5128105-.2132714-.1167391-.1586716-.1203662-.3867183-.0301675-.6784233l.8211136-2.6856524Z"/>
            <path class="cls-3" d="m187.3953737,102.9651258c-.6733049.3233823-1.3716404.543291-2.0395047.5580664,1.4705755.0138824,2.527883,1.9438746,2.6971137,2.2753948l1.6756997.0042255c-.4286509-.8389085-1.631659-2.6268272-2.3333086-2.8376866"/>
            <polygon class="cls-3" points="182.4789196 105.8026559 184.0134387 105.8026559 184.7087639 103.5257606 183.174834 103.5257606 182.4789196 105.8026559"/>
            <polygon class="cls-3" points="185.7236234 100.2094262 184.1893896 100.2058176 183.2762822 103.1934211 185.2883259 101.6320393 185.7236234 100.2094262"/>
            <path class="cls-3" d="m188.9213314,100.2104389c-3.6162602,3.0790082-7.2050685,3.3152112-7.2050685,3.3152112h3.5673864c.0241377,0,.0485699-.0018135.0721-.0024119.6678643-.0147846,1.3661998-.2346933,2.0394955-.5580664,1.7426721-.835889,3.3185253-2.3541322,3.7613532-2.7547329h-2.2352666Z"/>
            <path class="cls-3" d="m202.6197937,105.0512028c-.292911-.0009022-.4974368-.084758-.6060287-.2494687-.0944242-.1444946-.1128266-.3306088-.038913-.5755574l.0431293-.138161h4.6744698l.2217223-.7254835-4.6744698.0006076.2989408-.9785793h4.674166l.2307716-.7526315h-6.209302l-.9303039,3.052164c-.0898949.2965289-.0654626.5731455.0699827.7788773.1502207.2301641.4325726.3402657.7846033.3396674h5.0029797l.2367923-.7523369-3.7785404.0009022Z"/>
          </g>
        </g>
        <g>
          <path class="cls-1" d="m85.1949392,84.787952c.1458172,0,1.3564639.9190123,1.3564639,1.2106467,0,.1019221-.0873618.1897122-.2770741.1897122-.0730157,0-.1603775-.0145603-.2625138-.0436809-.043895-.0145603-.0730157-.0145603-.1021363-.0145603-.1166966,0-.2042725.0582412-.3209691.1456031-2.3776124,1.6337521-5.3095871,1.9694956-5.6742372,1.9694956-.1460313,0-.2333932-.0291206-.2333932-.0732298,0-.0436809.1019221-.0873618.320755-.1456031,1.1960864-.2770741,3.3259595-1.1378451,4.6387424-2.3776124.1897122-.1751519.3937706-.5254558.4813466-.7442886.0145603-.0728015.0291206-.1164825.0730157-.1164825Zm.4667863-.452226c-.816876,0-3.6614889.0291206-4.9888321.1751519h-.0145603c-.2770741,0-.6564985-.583697-.6564985-.7734092.7586348.0877901,1.9547212.1460313,3.078006.1897122.0145603-.9626932.0145603-4.215637.0145603-4.4344699,0-.1897122-.043895-1.1815261-.1605916-1.7356742-.0145603-.0436809-.0145603-.0732298-.0145603-.1023504,0-.0145603,0-.0291206.0145603-.0291206.1460313,0,.9629073.2625138,1.3712383.5395878l.0730157.0586695h1.1960864v-1.1815261c0-.3503038,0-1.0504833-.1603775-1.5755108-.0147744-.0436809-.0147744-.0728015-.0147744-.0873618,0,0,0-.0295489.131471-.0295489.1019221,0,1.4149192.1023504,1.4149192.4085451,0,.0877901-.1166966.1897122-.3064088.2770741-.2770741.1169107-.2770741.1897122-.2770741,2.1883284h1.589857v-1.1815261c0-.3503038,0-1.0504833-.1458172-1.5755108-.0145603-.0436809-.0291206-.0728015-.0291206-.0873618,0-.0149886.0145603-.0295489.1312569-.0295489.0291206,0,1.4294795.0877901,1.4294795.4085451,0,.0877901-.1166966.1897122-.320755.2770741-.2627279.1169107-.2627279.2042725-.2627279,2.1883284h1.4003589c.0730157,0,.1166966-.0145603.1897122-.0877901.087576-.1164825.2188328-.2625138.3064088-.3353153.0582412-.0291206.1019221-.0582412.1603775-.0582412.1166966,0,1.1524054.5395878,1.1524054.8457825,0,.1605916-.1897122.2625138-.36465.3503038-.2479535.1310428-.2479535.2333932-.2479535.6123894,0,.1023504-.0147744,1.0068024-.0147744,1.9840559s.0147744,2.0277368.0147744,2.4358537h.4813466c.1603775,0,.2040584-.0728015.2479535-.1310428.5689226-.9190123.7147304-1.0213627.816876-1.0213627.3355294,0,1.3564639,1.0650436,1.3564639,1.3421177,0,.0877901-.0728015.1751519-.320755.1751519h-8.2708966Zm-.087576-5.7183463h-1.2982226l-.1021363.0732298c-.1897122.1164825-.2188328.1164825-.2333932.5832688-.0145603.1023504-.0145603.7879695-.0145603,1.6337521h1.6483124v-2.2902506Zm-1.6483124,2.6842354v2.6401262c.7001795.0145603,1.2836623.0291206,1.6337521.0291206.0145603-.4813466.0145603-1.5605223.0145603-2.6692468h-1.6483124Zm4.0259248-2.6842354h-1.589857c-.0145603.7734092-.0145603,1.4735887-.0145603,2.2902506h1.6044173v-2.2902506Zm-.0145603,5.3534822c.0145603-.4813466.0145603-1.5605223.0145603-2.6692468h-1.6044173c0,1.1232848,0,2.2756903.0145603,2.6692468h1.5752967Zm3.3696404,3.6614889c-.5104672-.7875413-2.042083-1.8234643-3.0777919-2.450414-.0730157-.0441092-.1021363-.0732298-.1021363-.1023504s.0291206-.0436809.087576-.0436809c.3355294,0,4.2593179,1.0063741,4.2593179,2.3630521,0,.3648642-.2479535.6564985-.5543623.6564985-.1894981,0-.408331-.1169107-.6126035-.4231054Zm-.8023157-6.7247205c-.0145603-1.0063741-.0145603-1.9253864-.0291206-2.129659,0-.0436809-.0291206-.1605916-.1751519-.1605916h-1.5461761c-.0145603.7442886-.0145603,1.5027093-.0145603,2.2902506h1.7650089Zm0,.3939848h-1.7650089v2.6692468h1.7650089v-2.6692468Z"/>
          <path class="cls-1" d="m105.5967124,83.7374687h-7.1915068c-.7293001,3.9094423-3.5445782,4.4199096-3.5591385,4.4199096-.0293347,0-.043895-.0145603-.043895-.0291206,0-.0291206.1021363-.1164825.3355294-.2770741,2.2172349-1.5318299,2.6110056-3.9676836,2.6110056-5.9517395v-.1164825c0-.320755-.0873618-1.4003589-.2186187-1.8525849-.0147744-.0291206-.0147744-.0436809-.0147744-.0582412-.0873618-.0436809-.1458172-.131471-.1458172-.2625138v-.0586695c.043895-.4226771.0730157-.7438604.0730157-1.1669658v-.2038443c0-.2483817-.0145603-.6419382-.087576-.9776818-.0145603-.0436809-.0145603-.0728015-.0145603-.0873618,0-.0436809.0145603-.0436809.0291206-.0436809.1021363,0,.816876.2916344,1.0211486.452226l.0582412.0436809h2.0422971c.0582412,0,.1166966-.0436809.1603775-.1023504.0584553-.0728015.2481676-.3353153.3939848-.3353153.1894981,0,.8751173.4813466.8751173.6564985,0,.1164825-.1603775.1897122-.2625138.2625138-.2042725.1164825-.2333932.1897122-.2333932.4667863,0,.1897122.0436809.4813466.0730157.904452v.0436809c0,.2479535-.2188328.4085451-.4231054.4085451-.1749378,0-.3355294-.1169107-.3355294-.3648642.0145603-.2770741.0291206-.5687084.0291206-.8603428,0-.1897122-.0145603-.3939848-.0291206-.583697,0-.0436809-.0291206-.131471-.1312569-.131471h-2.2317952l-.0584553.0441092c-.0291206.0145603-.1603775.1164825-.1603775.6123894,0,.2333932.0145603.5254558.0291206.9190123,0,.2042725-.1749378.3357435-.36465.3794245.2772882.1019221.816876.2916344,1.0793898.4376657l.0730157.0582412h2.7861575v-.2188328c0-.131471-.0145603-.5687084-.087576-.9481329v-.0436809c0-.0582412.0436809-.0582412.087576-.0582412.0291206,0,.4667863,0,1.1378451.1747237.0436809-.2916344.0582412-.5541481.0728015-.904452,0-.1601634,0-.7147398-.1021363-1.1815261-.0145603-.0436809-.0145603-.0728015-.0145603-.0873618,0-.0436809.0145603-.0436809.0291206-.0436809.0293347,0,.043895,0,.087576.0145603.1605916.0436809.6710588.2479535.9335726.4376657l.043895.0436809h2.1442193c.0582412,0,.1312569-.0436809.1751519-.1023504.1894981-.320755.3498756-.3353153.3792103-.3353153.1749378,0,.9190123.4231054.9190123.6564985,0,.1164825-.1460313.1897122-.2627279.2625138-.2333932.131471-.2188328.2188328-.2333932.4667863,0,.2042725.0584553.4959069.087576.7584207.0145603.1897122-.1021363.452226-.4667863.452226-.1749378,0-.3355294-.1019221-.3355294-.3353153v-.0145603c.0145603-.3066229.0145603-.5691367.0145603-.8025298,0-.1751519,0-.3498756-.0145603-.5104672,0-.0436809-.0436809-.131471-.1458172-.131471h-2.3193712l-.0582412.0441092c-.1605916.1019221-.1605916.2042725-.1751519.452226,0,.2625138.0145603.452226.0291206.9481329,0,.2479535-.2625138.3935565-.4813466.3935565-.087576,0-.1603775-.0145603-.2188328-.0582412l-.1312569.0436809c-.1894981.0732298-.2333932.1023504-.2479535.3648642-.0145603.0873618-.0145603.1751519-.0145603.2625138h2.7424766c.0873618,0,.1894981-.0436809.2333932-.1019221.0291206-.0441092.4813466-.6564985.7147398-.6564985.1312569,0,1.2106467.6123894,1.2106467.9190123,0,.0873618-.0582412.1601634-.2916344.1601634h-8.2417759c-.043895.0441092-.087576.0877901-.1751519.131471-.1894981.1019221-.1749378.0728015-.1894981.5832688,0,.131471-.0145603.2479535-.0145603.3794245h1.8086899c0-.3648642-.0145603-.6273779-.0436809-.904452,0-.0436809-.0145603-.0728015-.0145603-.0873618,0,0,0-.0145603.1021363-.0145603.4228913.0291206,1.1230707.1310428,1.1230707.3061947,0,.0728015-.087576.1460313-.1749378.1751519-.131471.0582412-.1605916.1019221-.1751519.320755,0,.0582412-.0145603.131471-.0145603.2042725h1.6919933c0-.3648642-.0145603-.6273779-.0436809-.904452,0-.0436809-.0145603-.0582412-.0145603-.0728015s0-.0291206.1021363-.0291206c1.0793898.0728015,1.1378451.2479535,1.1378451.2916344,0,.0582412-.0730157.1164825-.1897122.1751519-.1458172.0728015-.1603775.1164825-.1749378.3353153,0,.0582412-.0147744.131471-.0147744.2042725h1.6191918c.0730157,0,.1458172-.0291206.1897122-.1019221.0730157-.1169107.2188328-.3066229.3064088-.3503038.0291206-.0291206.0582412-.0436809.1164825-.0436809.0293347,0,.0730157,0,.1169107.0291206.0873618.0291206.9335726.4231054.9335726.7147398,0,.1460313-.1751519.2333932-.3064088.3061947-.2042725.1169107-.2479535.1460313-.2479535.3794245,0,.2188328.0436809.7584207.0728015,1.0063741v.0586695c0,.2625138-.2770741.4372374-.5250275.4372374-.1897122,0-.36465-.1019221-.36465-.3498756v-.1460313Zm-6.0536616-7.0454755c-.452226,0-1.7943437,0-2.4651884.1169107h-.0145603c-.1605916,0-.539802-.4376657-.539802-.6856191.8314363.1601634,2.581885.2042725,3.0486713.2042725h.5689226c.0436809,0,.1312569-.0586695.1749378-.131471.131471-.2188328.539802-.7438604.7295142-.7438604.0291206,0,.0582412.0145603.0728015.0145603.3939848.1605916,1.0796039.8021016,1.0796039,1.0209344,0,.1023504-.0730157.2042725-.3064088.2042725h-2.3484918Zm.5834829,8.9417413v1.3421177c.9626932-.1897122,1.9692815-.4376657,2.6694609-.6269497.0436809-.0149886.0873618-.0149886.1166966-.0149886.0728015,0,.1021363.0149886.1021363.0586695,0,.2042725-2.0131765.9626932-5.2952409,1.8671452-.1312569.0291206-.1894981.1747237-.2916344.1747237-.1460313,0-.7731951-.9185841-.7731951-1.0354948,0,0,0-.0145603.1166966-.0145603.1458172.0145603.3209691.0145603.4813466.0145603.4959069,0,.6419382-.0145603,2.0859781-.2625138,0-.5250275.0145603-1.3421177.0291206-1.7797834,0-.5104672-.0873618-.9626932-.1603775-1.2688879-.0145603-.0291206-.0145603-.0582412-.0145603-.0728015,0-.0441092.0436809-.0441092.1458172-.0441092.2188328.0145603,1.3421177.1751519,1.3421177.4085451,0,.1023504-.1751519.2042725-.3648642.2770741-.0728015.0291206-.1458172.0145603-.1749378.452226,0,.0582412-.0145603.131471-.0145603.1897122h.816876c.0436809,0,.1458172-.0291206.1897122-.0728015.1603775-.2042725.3061947-.452226.4959069-.6419382.0436809-.0291206.0873618-.0436809.1458172-.0436809.0291206,0,.0584553.0145603.0730157.0145603.452226.1751519,1.0209344.7438604,1.0209344.8898917,0,.0873618-.0582412.189284-.2916344.189284h-2.4506281Zm-1.721328-7.1037167c0-.0291206.4085451-.131471.7877554-.131471.8605569,0,1.1085104.4376657,1.1085104.7442886,0,.2479535-.1603775.4667863-.3937706.4667863-.1312569,0-.2918485-.0732298-.4376657-.2775023-.2040584-.2625138-.5834829-.5395878-.9335726-.7147398-.087576-.0582412-.1312569-.0728015-.1312569-.0873618Zm.1751519,3.6323683c-.0293347.4081168-.0730157.8312222-.131471,1.2397673h1.9256006c.0145603-.3939848.0145603-.8025298.0145603-1.2397673h-1.8086899Zm4.3029989,0h-1.7065536v1.2397673h1.7065536v-1.2397673Zm2.26113-5.4703929c-.4376657,0-1.677433,0-2.3339315.1169107h-.0145603c-.1605916,0-.539802-.4376657-.539802-.6856191.8314363.1601634,2.4651884.2042725,2.9174144.2042725h.7731951c.0436809,0,.1312569-.0586695.1749378-.131471.1166966-.1897122.5543623-.7875413.7731951-.7875413.2625138,0,.9918138.6856191,1.1524054.9626932.0291206.0291206.0436809.0873618.0436809.1310428,0,.0877901-.0730157.1897122-.2916344.1897122h-2.6549006Zm-1.2254211,9.1460138c1.9110403-.7438604,2.1589937-1.093736,2.3487059-1.4294795.0291206-.0436809.0436809-.0582412.0582412-.0582412s.0436809.0145603.087576.0582412c.1603775.131471.8023157.8607711.8023157,1.0941642,0,.0873618-.0730157.1460313-.2042725.1460313-.0730157,0-.1605916-.0149886-.2770741-.0586695-.087576-.0291206-.131471-.0582412-.2042725-.0582412-.0291206,0-.0584553,0-.1021363.0145603-.3500897.1023504-1.7358883.452226-2.5236437.583697v.4667863c0,.7147398.0145603.8021016,1.6922074.8021016,1.5607364,0,2.042083,0,2.6110056-2.1587796.0145603-.0732298.0291206-.1023504.0436809-.1023504.0730157,0-.0291206,1.5609505.2333932,1.7069818.1751519.1019221.2627279.2333932.2627279.3644359,0,.3648642-.6273779.7438604-1.8380246.8170902-.4813466.0291206-1.0939501.0436809-1.5752967.0436809-1.0941642,0-2.2026746-.131471-2.2026746-.9626932v-.0582412c.0145603-.2775023.0291206-.9776818.0291206-1.3857986v-.2188328c0-.6856191-.0291206-1.0650436-.1021363-1.356678-.0145603-.0436809-.0145603-.0728015-.0145603-.0877901,0-.0436809.0145603-.0436809.0728015-.0436809.1751519,0,1.4442539.1460313,1.4442539.452226,0,.0732298-.1166966.1605916-.3355294.2625138-.2188328.0877901-.2479535.131471-.2625138.452226l-.043895.7147398Zm-.2479535-3.6756209v1.2397673h1.9401609c0-.4376657,0-.8898917-.0145603-1.0796039,0-.0436809-.0145603-.1601634-.1751519-.1601634h-1.7504486Zm1.2836623-2.8302667c-.1894981-.2625138-.5834829-.5395878-.9190123-.7147398-.0873618-.0582412-.1458172-.0728015-.1458172-.0873618,0-.0436809.452226-.131471.7877554-.131471.816876,0,1.1085104.4085451,1.1085104.7442886,0,.2479535-.1603775.4667863-.3937706.4667863-.1312569,0-.2916344-.0732298-.4376657-.2775023Z"/>
          <path class="cls-1" d="m116.4805416,79.9740577c0,3.0486713-2.4069472,6.024541-3.5884732,6.024541-.7001795,0-.992028-.9335726-1.5461761-1.7356742-.2188328-.3066229-.3209691-.7442886-.3209691-1.2401955,0-2.3484918,2.0566433-5.3534822,5.4992994-5.3534822,3.1362472,0,4.7699993,2.1883284,4.7699993,4.4199096,0,3.3261736-3.1947026,5.0036066-5.6890116,5.0036066-.2770741,0-.4231054-.0436809-.4231054-.1023504,0-.0728015.2042725-.1601634.5689226-.2479535,4.3616683-.9626932,4.5511664-4.0113645,4.5511664-4.7697852,0-1.9840559-1.3564639-3.8075202-3.9092282-3.8220805-.1458172,0-.3064088,0-.452226.0145603.3500897.2333932.539802.9335726.539802,1.808904Zm-.583697-.4813466c0-.9772535-.2333932-1.225207-.5395878-1.225207h-.0291206c-2.1150987.5395878-3.5008973,2.6110056-3.5008973,4.4199096,0,1.0209344.5395878,2.129659,1.137631,2.129659.8462108,0,2.9319747-2.8152781,2.9319747-5.3243616Z"/>
          <path class="cls-1" d="m134.794838,84.0732123c.0145603.0145603.0145603.0436809.0145603.0582412,0,.0728015-.0728015.1460313-.2333932.2188328-.2479535.1019221-.2188328.0291206-.3061947.3353153-.1166966.452226-.3064088.8607711-.539802,1.2256352,1.7941296.4376657,2.8152781,1.1378451,2.8152781,1.7793551,0,.2479535-.1603775.4231054-.3937706.4231054-.1751519,0-.4085451-.1019221-.6564985-.3644359-.4959069-.5254558-1.225207-.9922421-2.1150987-1.356678-1.1085104,1.225207-3.0049904,1.7647948-5.3680425,1.7647948-.1897122,0-.36465-.0145603-.5543623-.0145603-.1166966.1605916-.3061947.2479535-.4959069.2479535-.2188328,0-.4228913-.1456031-.4228913-.4667863v-.0436809c.0728015-1.6337521.1312569-4.2447576.1458172-6.5350082-1.0793898,1.8817055-2.9174144,2.858959-3.1653678,2.858959-.0145603,0-.0293347,0-.0293347-.0291206s.0584553-.1019221.2042725-.2333932c1.721328-1.4586001,2.9028541-3.7488507,3.0049904-4.1573958v-.5687084c-.5106813,0-1.0065883.0145603-1.808904.131471-.1749378.0145603-.5834829-.5545764-.5834829-.715168.9774676.1605916,1.808904.2042725,2.3923869.2042725,0-.5104672-.0145603-.9772535-.0145603-1.3416894-.0145603-.3794245,0-1.488149-.1312569-2.1883284-.0145603-.0436809-.0145603-.0728015-.0145603-.1019221,0-.0436809.0145603-.0582412.0582412-.0582412.087576,0,1.4879349.2038443,1.4879349.5395878,0,.0873618-.087576.1751519-.2479535.2625138-.2333932.1164825-.3209691.0873618-.3500897.5541481-.0293347.4813466-.043895,1.3275574-.043895,2.3339315h.1605916c.0436809,0,.1312569-.0436809.1749378-.1164825.4376657-.6710588.4667863-.7293001.5834829-.7293001.0291206,0,.0584553.0145603.087576.0145603.3061947.1456031.7001795.5832688.8898917.9190123.0145603.0145603.0145603.0582412.0145603.0873618,0,.1023504-.043895.2042725-.2627279.2042725h-1.6483124v1.5755108c.8898917.0582412,1.6483124.4813466,1.6483124,1.0646154,0,.2770741-.1749378.4959069-.3937706.4959069-.1603775,0-.3355294-.1019221-.4813466-.3498756-.2042725-.320755-.4813466-.6710588-.7731951-.9190123.0145603,2.3048109.043895,4.9012562.1166966,6.7392808,0,.0436809,0,.0873618-.0145603.1310428,2.3048006-.1747237,4.0989405-.6706306,5.1055287-1.823036-.4231054-.1169107-.8607711-.2188328-1.3275574-.2920626l-.2186187.4959069c-.1166966.2333932-.3939848.3503038-.6273779.3503038-.2040584,0-.3500897-.0728015-.3500897-.2479535,0-.0582412.0145603-.1460313.0730157-.2333932.4959069-.8898917.7584207-1.5027093.9772535-2.129659-.7293001.0145603-1.589857.0436809-2.5088693.1310428h-.0145603c-.2627279,0-.6273779-.5395878-.6273779-.7001795,1.1232848.131471,2.4069472.1897122,3.2675041.2042725l.043895-.1310428c.1458172-.4667863.2770741-.904452.2916344-1.3712383-.4228913.0145603-.8896776.0436809-1.5461761.0873618h-.0145603c-.2479535,0-.7001795-.5395878-.7001795-.7147398,1.1960864.131471,2.0129624.1897122,2.8007178.2042725.0145603-.3939848.0145603-.8316505.0145603-1.2838765-1.0648295.0149886-1.808904.0586695-3.2675041.1460313h-.0145603c-.2479535,0-.6710588-.5687084-.6710588-.7438604,1.6919933.1605916,2.8298384.2188328,3.9531233.2188328v-1.0941642c-.5980432.0145603-1.3275574.0291206-1.9838418.1023504h-.0145603c-.2479535,0-.6564985-.4963352-.6564985-.6710588.8314363.1019221,1.8671452.1456031,2.6549006.1601634,0-.4226771,0-.8166619-.0145603-1.1669658-.7147398,0-1.8234643.0441092-2.9028541.1605916h-.0145603c-.2479535,0-.6564985-.5832688-.6564985-.7584207,1.269102.1751519,2.7861575.2333932,3.5739129.2333932v-.131471c0-.6269497-.043895-1.3271291-.1460313-1.7502345,0-.0291206-.0145603-.0436809-.0145603-.0582412,0-.0441092.0293347-.0586695.0730157-.0586695.1021363,0,1.5316158.1897122,1.5316158.5254558,0,.0873618-.0728015.189284-.1897122.2770741-.2916344.1897122-.3937706.0728015-.4228913.6564985,0,.1601634-.0145603.3498756-.0145603.5395878h1.9253864c.087576,0,.1605916-.0582412.2188328-.131471.1312569-.2042725.5834829-.8603428.7440745-.8603428.3353153,0,1.1815261.9481329,1.1815261,1.1669658,0,.1019221-.0730157.189284-.2918485.189284h-3.7925316c0,.3648642-.0147744.7734092-.0147744,1.1815261h1.4296936c.0728015,0,.1312569-.0145603.1749378-.0873618.3064088-.3939848.3064088-.4085451.4085451-.4085451.0436809,0,1.0357089.4959069,1.0357089.8607711,0,.1605916-.1751519.2479535-.3209691.3503038-.1897122.1164825-.2188328.1747237-.2333932.5104672-.0145603.0582412-.0145603.1747237-.0145603.2625138h.6417241c.043895,0,.1458172-.0436809.1897122-.1169107.1749378-.3935565.6271638-.8603428.7293001-.8603428.043895,0,.0730157.0145603.1166966.0291206.3064088.1897122.7877554.6269497.992028.9918138.0291206.0291206.0436809.0873618.0436809.131471,0,.1019221-.0730157.2038443-.3209691.2038443h-2.3921727l.1021363,1.7652231c.0145603.2625138-.1605916.5104672-.5106813.5104672-.1894981,0-.36465-.1164825-.36465-.3789962v-.2333932h-1.3127829c-.4085451,0-.7438604,0-1.0502692.0145603.5980432.1456031.6562844.2188328.6562844.2916344s-.0728015.1310428-.2333932.1605916c-.2916344.0291206-.2625138.189284-.408331.5541481-.0730157.1751519-.1458172.3498756-.2042725.5250275h3.6030335c.0436809,0,.1458172-.0436809.1897122-.1164825.5104672-.8462108.5395878-.8462108.6710588-.8462108.0436809,0,.0728015.0145603.1019221.0145603.4667863.1751519,1.1378451.8753314,1.1378451,1.1087245,0,.1019221-.0728015.2042725-.3209691.2042725h-2.6985815Zm-2.8152781,0c-.1749378.4813466-.36465,1.0063741-.5689226,1.5314017.5252417.0145603,1.0357089.0586695,1.5170555.1460313.3500897-.5250275.5543623-1.1815261.5543623-1.677433h-1.5024952Zm.9772535-5.0618478v1.1087245h1.7358883c0-.4085451-.0145603-.8025298-.0145603-.9481329,0-.0582412-.0436809-.1605916-.1603775-.1605916h-1.5609505Zm0,1.4877207c0,.4667863.0147744.904452.0147744,1.2984368h1.7065536c.0145603-.3939848.0145603-.8316505.0145603-1.2984368h-1.7358883Z"/>
          <path class="cls-1" d="m148.1046712,88.3325302c-.0436809,0-.0873618-.0291206-.1019221-.0582412-.7293001-1.3275574-3.0634457-4.9303768-4.1428355-6.4039655-.0291206-.0436809-.0584553-.1310428-.0584553-.2042725,0-.0873618.0293347-.1601634.0584553-.2038443,1.0793898-1.4735887,3.4135354-5.0764081,4.1428355-6.4039655.0145603-.0291206.0582412-.0582412.1019221-.0582412.131471,0,.4376657.2333932.452226.2479535.0145603.0291206.0291206.0582412.0291206.0873618,0,.0877901-3.6903954,5.6746654-3.9822439,6.1268914-.0436809.0728015-.0582412.1310428-.0582412.2038443,0,.0586695.0145603.131471.0582412.2042725.2918485.452226,3.9822439,6.0391013,3.9822439,6.1268914,0,.0291206-.0145603.0582412-.0291206.0873618-.0145603.0145603-.320755.2479535-.452226.2479535Z"/>
          <path class="cls-1" d="m157.2601064,85.0213452c-.0436809.5541481-.4376657,1.7502345-.4813466,2.1005384-.0441092.2479535-.1169107.3644359-.5254558.3644359h-.1456031c-.1897122,0-1.0650436-.0145603-2.0422971-.0145603-1.3712383,0-2.9758697.0145603-3.165582.0291206h-.0582412c-.2042725,0-.3644359-.1164825-.3644359-.2184046,0-.0295489.0291206-.0732298.1019221-.1023504.8021016-.2625138,3.9968042-3.8507729,4.6387424-5.1055287,1.3275574-2.6401262.2333932-4.2447576-1.2543276-4.2447576-.9776818,0-1.9549353.7438604-1.9549353,2.3048109,0,.1019221.0145603.1897122.0145603.2916344,0,.0728015-.0436809.1169107-.1019221.1169107-.0291206,0-.0732298-.0291206-.0877901-.0732298-.2184046-.904452-.7147398-.8166619-.7147398-1.1082963,0-.3939848.9631215-2.1150987,3.165582-2.1150987,1.6337521,0,2.8298384,1.0063741,2.8298384,2.4940949,0,1.4003589-.7001795,2.5236437-4.667863,6.608238-.0436809.0436809-.0582412.0728015-.0582412.1019221,0,.0728015.0873618.1460313,1.356678.1460313,2.538204,0,2.9900018-.6419382,3.3694263-1.6046314.0145603-.0436809.0436809-.0732298.0728015-.0732298.0295489,0,.0732298.0441092.0732298.0877901v.0145603Z"/>
          <path class="cls-1" d="m162.2071847,86.2902331c0-.4813466-.6710588-.8898917-1.7065536-1.4003589-.7001795-.3498756-1.0796039-.8603428-1.0796039-1.5168414,0-.8170902.6419382-1.4735887,1.8671452-1.4735887h.0436809c.3794245,0,1.035923.1897122,1.2256352.1897122.1747237.0145603.2042725.0732298.2042725.1605916v.0436809c-.0149886.0877901-.0149886.1605916-.0149886.2479535,0,.1751519.0149886.3357435.0149886.5104672,0,.2479535-.0441092.2920626-.0877901.2920626-.0291206,0-.0582412-.0291206-.0582412-.1023504,0-.1456031-.2770741-.9481329-1.4003589-.9481329-.7584207,0-1.0354948.3939848-1.0504833.7879695,0,.6269497.6128176.8166619,1.035923,1.0063741l.5687084.2479535c.8170902.3794245,1.2838765.8753314,1.2838765,1.6337521,0,.9335726-.7584207,1.6919933-2.2465697,1.6919933-.9772535,0-1.4877207-.3939848-1.5755108-.4813466-.0873618-.0728015-.1019221-.1751519-.1019221-.2770741.0291206-.2625138.0873618-.5982573.0873618-.8753314,0-.0582412.0295489-.0728015.0586695-.0728015.0436809,0,.0873618.0291206.0873618.0873618s0,.2188328.0291206.3066229c.0873618.4372374.6128176.9185841,1.4586001.9185841.6273779,0,1.356678-.2770741,1.356678-.9626932v-.0145603Z"/>
          <path class="cls-1" d="m166.7341554,87.6469111c-.7438604,0-1.3857986-.4667863-1.4731604-1.2543276-.0145603-.1605916-.0291206-.3648642-.0291206-.5982573,0-.772981.0728015-1.8671452.0728015-2.7424766,0-.4813466-.1169107-.5395878-.4667863-.5395878-.2188328,0-.2916344,0-.2916344-.2479535,0-.0873618.0291206-.1751519.0728015-.1751519.8898917-.0728015,1.4586001-1.3125688,1.6628727-1.6046314.0291206-.0436809.0582412-.0582412.0877901-.0582412.0436809,0,.0873618.0582412.0873618.1169107-.0291206.2916344-.0728015.9190123-.0873618,1.3271291v.0586695c0,.0873618.0291206.1456031.1747237.1456031.4813466,0,1.035923,0,1.4149192-.0291206.0732298-.0145603.1169107.131471.1169107.2770741,0,.1460313-.0436809.2770741-.131471.2770741-.3644359-.0291206-.9190123-.0291206-1.4003589-.0291206-.2042725,0-.2188328.0877901-.2333932.2775023-.0291206.9481329-.0582412,2.1879002-.0582412,2.9172003,0,.5687084,0,1.3421177.9626932,1.3421177.3648642,0,.7293001-.1460313.9626932-.3794245.0291206-.0291206.0441092-.0291206.0732298-.0291206.0436809,0,.0873618.0291206.0873618.0728015,0,.0877901-.6273779.8753314-1.6046314.8753314Z"/>
          <path class="cls-1" d="m171.7488963,88.0845768c.0873618-.1751519.1169107-.3061947.1169107-.4376657,0-.5832688-1.4735887-4.3762286-1.5318299-4.4927111-.2188328-.4085451-.4231054-.8898917-.8316505-.9335726-.0873618-.0145603-.1456031-.0728015-.1456031-.1169107,0-.0291206.0291206-.0582412.1019221-.0582412h.0436809c.1751519.0291206.6128176.0436809,1.1524054.0436809.3503038,0,.7588489,0,1.1669658-.0291206.0732298,0,.1023504.0436809.1023504.0877901,0,.0291206-.0291206.0728015-.0877901.0728015-.320755.0291206-.4813466.2770741-.4813466.5832688,0,.4085451,1.0941642,3.4572163,1.2110749,3.4572163.0291206,0,.0582412-.0436809.1019221-.1310428,1.1524054-2.5968735,1.3129971-3.165582,1.3129971-3.7488507,0-.0732298,0-.1169107-.0145603-.1460313v-.0436809c0-.0732298.0291206-.131471.1164825-.131471.2042725.0145603.4959069.0291206.7875413.0291206.2483817,0,.4963352-.0145603.7001795-.0291206.0732298,0,.1023504.0436809.1023504.0728015,0,.0441092-.0291206.0877901-.1023504.0877901-.5395878.0291206-.8166619.4959069-1.2397673,1.3275574-.8021016,1.5750826-1.7943437,3.9090141-2.6838071,5.6596769-.5400161,1.0500551-1.1669658,2.1005384-2.4217216,2.3048109-.1601634,0-.1897122-.0441092-.1897122-.0877901,0-.0291206.0149886-.0582412.0441092-.1164825.1164825-.2333932.3789962-.5982573.4376657-.8170902.0436809-.1310428.1456031-.1164825.320755-.1310428.6564985-.0436809,1.0796039-.7588489,1.4294795-1.3712383l.4813466-.904452Z"/>
          <path class="cls-1" d="m176.5837746,87.5008798c-.0732298,0-.1169107-.0436809-.1169107-.0873618,0-.0291206.0291206-.0582412.0877901-.0728015.7293001-.1460313.8312222-.3648642.8312222-.9335726.0291206-1.2693161.0728015-3.6323683.0728015-5.6159959,0-1.2838765-.0145603-2.4071613-.0728015-2.99043-.0291206-.5104672-.3353153-.6128176-.772981-.6419382-.0582412,0-.0877901-.0436809-.0877901-.0873618s.0295489-.1023504.0732298-.1023504c.4959069-.0582412,1.3421177-.2916344,1.8380246-.5832688.0291206-.0291206.0582412-.0291206.0873618-.0291206.0436809,0,.0582412.0291206.0582412.0873618v.0291206l-.0873618,1.0650436c-.1169107,2.2756903-.1169107,6.7101602-.1169107,8.8835,0,.4959069.0732298.8753314.6856191.9190123.0586695,0,.0877901.0291206.0877901.0728015s-.0291206.0873618-.1023504.0873618c-.4667863-.0291206-.8312222-.0873618-1.3271291-.0873618-.3066229,0-.6710588.0291206-1.1232848.0873618h-.0145603Z"/>
          <path class="cls-1" d="m183.0643958,87.6469111c-1.7211139,0-2.5673247-1.2834482-2.5673247-2.6546865,0-1.7506628,1.2106467-3.1073407,2.7424766-3.1073407.7438604,0,1.4003589.3211832,1.6919933.8462108.0873618.1460313.131471.1019221.1897122.1897122.0291206.0291206.0436809.0873618.0436809.1310428,0,.1169107-.1019221.262942-.320755.3066229-.3794245.0873618-2.2465697.8749031-3.1364614,1.225207-.1310428.0436809-.1747237.0873618-.1747237.2042725,0,.3789962.189284,2.26113,2.0273086,2.26113.5691367,0,1.1815261-.2188328,1.6046314-.7442886.0436809-.0436809.0877901-.0728015.1023504-.0728015.0291206,0,.0582412.0291206.0582412.0728015,0,.1897122-.7584207,1.3421177-2.26113,1.3421177Zm.0145603-5.3389219c-.6710588,0-1.4731604.5104672-1.545962,1.7215421,0,.0873618.0291206.1310428.0728015.1310428.0145603,0,.0582412-.0145603.0873618-.0291206,1.9986162-.8316505,2.3048109-.9626932,2.3048109-1.1669658,0-.0436809-.0582412-.6564985-.9190123-.6564985Z"/>
          <path class="cls-1" d="m187.1759695,88.3325302c-.131471,0-.4376657-.2333932-.452226-.2479535-.0145603-.0291206-.0291206-.0582412-.0291206-.0873618,0-.0877901,3.6906095-5.6746654,3.9822439-6.1268914.0436809-.0728015.0728015-.1456031.0728015-.2042725,0-.0728015-.0291206-.1310428-.0728015-.2038443-.2916344-.452226-3.9822439-6.0391013-3.9822439-6.1268914,0-.0291206.0145603-.0582412.0291206-.0873618.0145603-.0145603.320755-.2479535.452226-.2479535.0436809,0,.0873618.0291206.1019221.0582412.7293001,1.3275574,3.0632316,4.9303768,4.1428355,6.4039655.0436809.0436809.0582412.1164825.0582412.2038443,0,.0732298-.0145603.1605916-.0582412.2042725-1.0796039,1.4735887-3.4135354,5.0764081-4.1428355,6.4039655-.0145603.0291206-.0582412.0582412-.1019221.0582412Z"/>
          <path class="cls-1" d="m199.4177614,78.5882591c-.5832688,0-.8753314.0145603-1.7943437.131471h-.0145603c-.189284,0-.6123894-.5395878-.6123894-.7147398,1.1087245.1751519,1.8380246.2042725,2.450414.2042725h.7734092c.0291206,0,.1164825-.0441092.1601634-.1169107.4231054-.7293001.5104672-.772981.5982573-.772981.0291206,0,.0582412.0145603.0873618.0145603.2333932.1164825,1.035923.772981,1.035923,1.1087245,0,.0728015-.0586695.1456031-.2625138.1456031h-2.4217216Zm.8462108,7.7897641h-1.3421177l.0291206,1.2834482c0,.2770741-.2916344.452226-.5250275.452226-.2042725,0-.3648642-.1164825-.3648642-.3498756v-.0586695c.0877901-1.0791757.1023504-1.7356742.1023504-2.7420483,0-.1897122-.0732298-1.3712383-.1751519-1.8966941,0-.0436809-.0145603-.0582412-.0145603-.0873618s.0145603-.0291206.0291206-.0291206c.1023504,0,.9481329.3498756,1.2688879.5982573h.7006077c.0728015,0,.1456031-.0295489.189284-.1169107.1169107-.1897122.3211832-.3939848.3939848-.3939848.1164825,0,1.0650436.4813466,1.0650436.8316505,0,.1460313-.1605916.2479535-.2920626.3353153-.2042725.1460313-.2479535.2479535-.2479535.6273779v.3061947c0,.5108955.0436809.9481329.0877901,1.5609505v.0436809c0,.2916344-.2625138.4667863-.5108955.4667863-.2038443,0-.3935565-.1164825-.3935565-.4085451v-.4226771Zm-.7438604-9.8170727c-.1460313,0-.6419382.0728015-.9190123.1310428h-.0145603c-.2042725,0-.5691367-.4813466-.5691367-.7001795.4959069.0877901,1.1960864.2042725,1.3421177.2042725h.2770741c.0291206,0,.1169107-.0436809.1605916-.1164825.1310428-.262942.3498756-.5400161.452226-.6710588.0291206-.0291206.0728015-.0441092.1164825-.0441092.0291206,0,.0582412.0149886.0732298.0149886.4226771.189284.9481329.7147398.9481329.9918138,0,.1019221-.0586695.1897122-.262942.1897122h-1.6042032Zm-.0877901,3.7342904c-.1310428,0-.5250275.0873618-.8021016.1164825h-.0145603c-.1897122,0-.5691367-.4376657-.5691367-.6856191.5545764.1169107,1.2838765.2042725,1.4149192.2042725h.2042725c.0291206,0,.1169107-.0436809.1460313-.1164825.1164825-.2333932.4085451-.6710588.5541481-.6710588.0291206,0,.0582412.0145603.0732298.0145603.3353153.1601634.8894634.6710588.8894634.9481329,0,.1019221-.0582412.1897122-.2625138.1897122h-1.6337521Zm.0732298,1.8084757c-.1460313,0-.3066229.0291206-.8607711.1169107h-.0145603c-.1897122,0-.5691367-.4813466-.5691367-.7001795.8607711.1751519,1.3421177.2188328,1.4735887.2188328h.1456031c.0291206,0,.1169107-.0436809.1460313-.131471.1310428-.2479535.3498756-.4959069.4376657-.6123894.0291206-.0295489.0728015-.0441092.1164825-.0441092.0291206,0,.0586695,0,.0732298.0145603.4372374.2042725.8894634.7734092.8894634.9485612,0,.0873618-.0582412.189284-.2625138.189284h-1.5750826Zm.772981,3.894882c.0145603-.3794245.0145603-.6856191.0145603-1.0063741,0-.2625138,0-.5400161-.0291206-.8753314,0-.0436809-.0145603-.1605916-.1023504-.1605916h-.9335726l-.1019221.0732298c-.131471.1019221-.1751519.189284-.1751519.4959069-.0291206.4959069-.0291206.9772535-.0291206,1.4731604h1.356678Zm2.727488-5.6305562l-.0873618.2188328c-.1164825.3061947-.3794245.4376657-.5978291.4376657-.1751519,0-.3066229-.0877901-.3066229-.2625138,0-.0732298.0145603-.1460313.0582412-.2333932.8753314-1.8380246,1.4444681-3.2820644,1.4444681-3.442656,0-.0582412-.0586695-.0877901-.131471-.0877901h-.2188328c-.2479535,0-.4376657.0149886-.8166619.1023504h-.0291206c-.1897122,0-.5982573-.4959069-.5982573-.7001795.8753314.1897122,1.1524054.2188328,1.4294795.2188328h.2479535c.0728015,0,.131471-.0728015.2042725-.1460313.2333932-.2916344.2916344-.2916344.320755-.2916344.1751519,0,.9776818.5687084.9776818.7875413,0,.1460313-.1897122.1897122-.3357435.2625138-.1897122.0877901-.2770741.0732298-.4376657.4231054-.2625138.5982573-.64151,1.488149-.9626932,2.3048109h.5982573c.0728015,0,.1310428-.0582412.1897122-.1310428.2188328-.262942.2916344-.2775023.320755-.2775023.1019221,0,.9772535.5108955.9772535.8170902,0,.1460313-.1751519.2042725-.2770741.2625138-.131471.0873618-.2479535.0582412-.3061947.4231054-.2333932,1.4586001-.6273779,2.7570369-1.1669658,3.8362126,1.093736,1.8962658,2.7420483,1.9108261,4.0696057,1.9108261,1.1087245,0,2.2465697-.1601634,3.5736988-.5978291.0732298-.0291206.1169107-.0291206.1605916-.0291206.0145603,0,.0291206,0,.0291206.0145603,0,.1605916-1.0354948.904452-1.225207,1.2980085-.1169107.1751519-.2479535.2775023-1.8234643.2775023-2.6110056,0-4.1132866-.4813466-5.0618478-2.3780407-1.3125688,2.1737681-3.0632316,2.8007178-3.2675041,2.8007178-.0291206,0-.0436809-.0145603-.0436809-.0291206,0-.0582412.1169107-.1747237.3794245-.3353153,1.0941642-.7001795,1.9690674-1.7215421,2.6110056-3.1947026-.2770741-.8166619-.3794245-1.6483124-.3794245-2.3484918v-.2625138c-.1747237.3648642-.452226.904452-.4813466,1.0796039-.0145603.1164825,0,.3061947-.1310428.3061947-.2042725,0-.7584207-.5250275-.7584207-.5395878s.0145603-.0295489.0728015-.0877901c.6564985-.5541481,1.1087245-1.0209344,1.1087245-1.3125688,0-.2042725.1456031-.3066229.2916344-.3066229.1605916,0,.3061947.1023504.3061947.3066229,0,.0873618-.0436809.189284-.1019221.2479535-.0291206.0145603-.0436809.0436809-.0582412.0728015v.2479535c0,.6856191.1019221,1.4003589.3498756,2.0568574.5541481-1.5172696.8021016-3.3698545.8021016-3.5886874,0-.0873618-.0728015-.1310428-.1456031-.1310428h-.7734092Zm4.3179874,4.5072714c-.583697,0-1.6191918.0145603-2.538204.131471-.1751519.0145603-.6123894-.5400161-.6123894-.7147398.4372374.0728015.9185841.1164825,1.3853704.1456031.0149886-.7293001.0295489-1.4003589.0295489-1.9690674,0-.5691367-.0145603-1.035923-.0295489-1.356678,0-.3939848-.0291206-1.1087245-.1310428-1.4731604-.0145603-.0291206-.0145603-.0582412-.0145603-.0732298,0-.0291206.0145603-.0291206.0436809-.0291206.2479535,0,1.4149192.1897122,1.4149192.4667863,0,.0732298-.0728015.1460313-.2042725.2188328-.2770741.1460313-.3061947.0586695-.3353153.4959069-.0291206.4231054-.0436809,1.1669658-.0436809,2.0568574,0,.5250275.0145603,1.1087245.0145603,1.7069818.3498756.0145603.6560703.0145603.8894634.0145603.0145603-1.5172696.0295489-2.9467491.0295489-4.0117927,0-1.3562497-.0149886-2.4358537-.0877901-2.90264-.8021016.1460313-1.6628727.2625138-2.26113.2770741-.2038443,0-.320755-.0291206-.320755-.0728015s.1023504-.1023504.3061947-.131471c1.2401955-.1897122,3.4280957-.904452,3.9972324-1.545962.0436809-.0586695.0436809-.0877901.0728015-.0877901.1456031,0,.9626932.8025298.9626932.9335726,0,.0877901-.1019221.1605916-.2625138.1605916-.0436809,0-.1023504-.0145603-.1751519-.0291206-.0436809-.0145603-.1019221-.0145603-.1456031-.0145603-.0877901,0-.1605916.0145603-.2338214.0436809-.2479535.1019221-.6269497.2042725-1.0646154.3061947.3939848.1023504.4959069.131471.4959069.2625138,0,.0877901-.0728015.1751519-.1751519.2188328q-.3789962.1751519-.3789962,2.5236437h.3498756c.0436809,0,.1169107-.0291206.1751519-.1019221.0145603-.0145603.4231054-.7001795.5832688-.7001795.0295489,0,.0586695.0145603.0732298.0145603.3498756.1751519.9918138.6856191.9918138.9772535,0,.1019221-.0582412.1897122-.2625138.1897122h-1.9108261c0,1.0791757,0,2.3048109.0145603,3.6906095h.6710588c.0436809,0,.1310428-.0441092.1601634-.1169107.1460313-.2479535.4085451-.6419382.5400161-.772981.0436809-.0291206.0728015-.0436809.1164825-.0436809.0291206,0,.0436809.0145603.0582412.0145603.3939848.2042725.9922421.9335726.9922421,1.1082963,0,.0877901-.0586695.1897122-.2479535.1897122h-2.9321888Z"/>
          <path class="cls-1" d="m218.0969219,87.3115958c-.8166619,0-3.0195507.0291206-4.3466798.1601634h-.0145603c-.2775023,0-.6856191-.5687084-.6856191-.7584207v-.0145603c1.5168414.1897122,4.2738783.2333932,5.120089.2333932h.9040237l.0295489-3.3257453h-.3648642c-.7438604,0-1.7211139.0291206-2.9321888.1601634h-.0145603c-.2479535,0-.6560703-.5832688-.6560703-.7584207,1.37081.1751519,2.90264.2333932,3.6756209.2333932h.2920626v-2.9172003h-2.9467491c-1.4731604,2.2902506-2.7279163,3.1651537-2.9030682,3.1651537h-.0145603c0-.0436809.0586695-.1310428.2188328-.2916344,1.035923-1.0941642,2.26113-3.486337,2.844827-5.2806806.1164825-.3498756.1747237-.8312222.2038443-1.1374169.0145603-.0877901-.0145603-.131471.0441092-.131471.1601634,0,1.6483124.5104672,1.6483124.8166619,0,.1169107-.1169107.2188328-.4813466.2920626-.2333932.0436809-.262942.1310428-.4085451.4376657-.2479535.5687084-.5691367,1.1669658-.9335726,1.7647948h2.7279163c-.0586695-3.4717767-.0732298-3.63194-.2042725-4.3466798-.0145603-.0441092-.0145603-.0877901-.0145603-.1023504,0-.0291206.0145603-.0436809.0436809-.0436809.1897122,0,1.7939154.1751519,1.7939154.5687084,0,.1023504-.0873618.2042725-.2329649.3066229-.3357435.2188328-.4085451.0582412-.4376657.7438604-.0291206.5832688-.0291206,1.6483124-.0441092,2.8735193h2.1883284c.0873618,0,.1897122-.0582412.2333932-.1310428.6269497-.8607711.7147398-.9776818.8457825-.9776818.0441092,0,.0877901.0145603.1460313.0295489.3648642.1456031.9772535.7584207,1.1960864,1.1082963.0145603.0436809.0436809.0877901.0436809.1460313,0,.1019221-.0728015.1897122-.320755.1897122h-4.3325477v2.9172003h1.4299078c.0873618,0,.1747237-.0728015.2184046-.1310428.1751519-.2042725.5254558-.7293001.7006077-.8607711.0436809-.0291206.0873618-.0436809.1310428-.0436809.3357435,0,1.3129971.9772535,1.3129971,1.2106467,0,.0873618-.0732298.1897122-.3066229.1897122h-3.486337l.0295489,3.3257453h3.5445782c.1019221,0,.2042725-.0582412.2479535-.131471.1751519-.2625138.7584207-1.0209344.9335726-1.0209344.3644359,0,1.4294795,1.1087245,1.4294795,1.3421177,0,.1019221-.0728015.1897122-.320755.1897122h-7.7752038Z"/>
          <path class="cls-1" d="m226.747457,81.9581136v-.5691367h14.5872861v.5691367h-14.5872861Z"/>
          <path class="cls-1" d="m242.4156317,86.9467316c0-.904452.7293001-1.6337521,1.6483124-1.6337521.8898917,0,1.6191918.7293001,1.6191918,1.6337521,0,.9190123-.7293001,1.6483124-1.6191918,1.6483124-.9190123,0-1.6483124-.7293001-1.6483124-1.6483124Zm1.6337521-1.1524054c-.6419382,0-1.1524054.5250275-1.1524054,1.1669658,0,.6273779.5104672,1.1524054,1.1524054,1.1524054s1.1669658-.5250275,1.1669658-1.1524054c0-.6419382-.5250275-1.1669658-1.1669658-1.1669658Z"/>
        </g>
      </g>
      <rect class="cls-2" width="325" height="110"/>
    </g>
  </g>
</svg>